<svg width="24" height="24" viewBox="0 0 24 24" fill="none" xmlns="http://www.w3.org/2000/svg">
<path d="M11.6238 7.22161C10.7478 7.22161 9.3918 6.22161 7.9638 6.26161C7.02343 6.28618 6.10578 6.55599 5.30175 7.0443C4.49772 7.53261 3.8352 8.22249 3.3798 9.04561C1.4238 12.4456 2.8798 17.4576 4.7798 20.2176C5.7158 21.5616 6.8198 23.0736 8.2798 23.0256C9.6798 22.9656 10.2118 22.1136 11.9158 22.1136C13.6198 22.1136 14.0878 23.0256 15.5758 22.9896C17.0878 22.9656 18.0478 21.6216 18.9758 20.2656C19.639 19.2941 20.1564 18.2309 20.5118 17.1096C19.6317 16.7339 18.8809 16.1086 18.352 15.3111C17.8232 14.5135 17.5394 13.5786 17.5358 12.6216C17.5437 11.7732 17.7684 10.9409 18.1884 10.2037C18.6085 9.46655 19.21 8.84897 19.9358 8.40961C19.4746 7.75551 18.8687 7.21668 18.1652 6.83509C17.4617 6.4535 16.6796 6.23945 15.8798 6.20961C14.0318 6.06561 12.4798 7.21761 11.6198 7.21761L11.6238 7.22161ZM14.7438 4.38961C15.1602 3.90478 15.4766 3.34246 15.675 2.73496C15.8734 2.12745 15.9498 1.48673 15.8998 0.849609C14.6379 0.974524 13.4708 1.57521 12.6358 2.52961C12.2193 2.99335 11.9005 3.53625 11.6985 4.12591C11.4964 4.71557 11.4153 5.33989 11.4598 5.96161C12.0908 5.96741 12.7148 5.82877 13.284 5.5563C13.8532 5.28383 14.3526 4.88475 14.7438 4.38961Z" fill="white"/>
</svg>
