<svg width="200" height="43" viewBox="0 0 200 43" fill="none" xmlns="http://www.w3.org/2000/svg">
<g clip-path="url(#clip0)">
<path fill-rule="evenodd" clip-rule="evenodd" d="M5.34044 15.6896C3.79881 13.7153 3.32884 11.8121 4.38189 9.74409C5.50655 7.53489 7.41521 6.79153 9.79364 7.09222C10.4171 2.04798 15.1426 0.168875 18.9812 3.57707C19.6618 1.75463 20.9408 0.555571 22.8085 0.128066C25.2063 -0.420294 27.5436 0.827841 28.3929 3.19204C29.8485 7.24319 31.1943 11.3339 32.6576 15.6166C33.5619 13.6138 34.7008 12.148 36.8028 11.6175C40.8818 10.5878 44.8235 14.2018 43.7745 18.2665C42.415 23.5332 41.0016 28.8008 39.268 33.9538C37.4517 39.3511 33.4019 42.4085 27.7376 42.9301C22.0532 43.4541 17.7418 41.0141 14.7214 36.1777C13.9854 34.9994 13.0605 33.8722 12.0097 32.9673C8.97947 30.3575 5.87394 27.8304 2.73131 25.3539C0.808045 23.8386 -0.492855 22.1188 0.178887 19.5471C0.836223 17.0312 2.61392 15.8355 5.34044 15.6896ZM16.4129 13.599C17.4983 15.4739 18.6103 17.334 19.6426 19.2376C19.8151 19.5552 19.6423 20.0602 19.629 20.4779C19.1881 20.36 18.6568 20.3555 18.3269 20.0966C17.8401 19.7144 17.4949 19.1534 17.0933 18.6646C14.9553 16.0588 12.8311 13.4411 10.6749 10.8504C9.74203 9.72916 8.36956 9.52681 7.45837 10.3008C6.44982 11.1573 6.45787 12.4627 7.42029 13.6555C9.96898 16.8119 12.5214 19.9662 15.0044 23.1737C15.3359 23.6015 15.2744 24.3319 15.395 24.9222C14.8022 24.833 14.0704 24.9339 13.6388 24.6217C11.2929 22.926 9.0309 21.1149 6.7191 19.3714C5.36984 18.3534 4.12989 18.3752 3.3502 19.3598C2.49804 20.4359 2.75096 21.6486 4.08192 22.7433C7.21156 25.3168 10.3179 27.9198 13.4955 30.4337C15.0913 31.6955 16.3523 33.1464 17.3745 34.9217C19.5526 38.7033 23.0127 40.4447 27.3155 40.1295C31.6201 39.8137 34.9424 37.5961 36.3598 33.5175C38.1594 28.3375 39.501 22.9962 40.9684 17.7048C41.3824 16.2111 40.5725 14.936 39.1675 14.4515C37.7626 13.9669 36.396 14.4967 35.7222 15.8935C35.2887 16.7928 34.9075 17.7374 34.6599 18.7024C34.1634 20.6339 33.2852 22.1436 31.2607 22.8655C30.2798 23.2153 29.4062 23.8749 28.5012 24.423C25.5107 26.2332 24.5232 29.4085 25.8593 32.6143C26.0273 33.0177 25.7868 33.5908 25.7353 34.0848C25.3493 33.8071 24.7917 33.6149 24.6046 33.2392C23.1086 30.239 23.7716 26.4985 26.3304 24.2872C27.5937 23.1954 29.1605 22.4603 30.5219 21.47C30.8711 21.216 31.2381 20.5157 31.1267 20.173C29.4514 15.0232 27.7168 9.89305 25.9503 4.77344C25.3905 3.15157 24.3643 2.56814 23.1393 3.00324C21.8316 3.46808 21.4384 4.46247 21.9393 6.10736C22.92 9.32559 23.9465 12.5303 24.8648 15.7662C25.0199 16.3134 24.7259 16.9863 24.6393 17.6015C24.151 17.2594 23.4837 17.0241 23.2038 16.5579C21.1911 13.206 19.2618 9.8043 17.2955 6.42487C16.3079 4.72833 15.2516 4.27266 13.9938 4.9682C12.6844 5.69197 12.5388 6.88359 13.5575 8.65764C14.5046 10.3086 15.462 11.9516 16.4129 13.599Z" fill="#FF2E00"/>
<path d="M67.0024 39.6343C65.2841 39.6343 63.5502 39.572 61.8006 39.4473C60.051 39.3539 58.5202 39.1358 57.208 38.793V7.33753C57.8953 7.2129 58.6296 7.10383 59.4105 7.01035C60.1916 6.88571 60.9882 6.79224 61.8006 6.72992C62.6128 6.66761 63.4096 6.62086 64.1905 6.58971C65.0029 6.55854 65.7683 6.54297 66.4868 6.54297C68.4551 6.54297 70.2827 6.69876 71.9698 7.01035C73.6569 7.29079 75.1096 7.77376 76.328 8.45926C77.5777 9.14478 78.5462 10.0484 79.2335 11.1701C79.9208 12.2919 80.2645 13.6784 80.2645 15.3299C80.2645 16.8567 79.8896 18.1654 79.1398 19.256C78.4212 20.3466 77.4059 21.2191 76.0938 21.8734C78.0619 22.5277 79.5147 23.4937 80.452 24.7713C81.3892 26.0487 81.8578 27.6691 81.8578 29.6321C81.8578 32.9661 80.6394 35.4744 78.2025 37.1571C75.7657 38.8086 72.0323 39.6343 67.0024 39.6343ZM63.019 24.6777V34.5397C63.6751 34.602 64.3781 34.6487 65.1278 34.6799C65.8776 34.7111 66.5649 34.7267 67.1898 34.7267C68.4082 34.7267 69.5329 34.6487 70.5639 34.493C71.6261 34.3372 72.5322 34.0723 73.2819 33.6984C74.063 33.2934 74.6722 32.7636 75.1096 32.1093C75.5782 31.4549 75.8126 30.6136 75.8126 29.5853C75.8126 27.747 75.1408 26.4694 73.7975 25.7527C72.454 25.0361 70.5952 24.6777 68.2208 24.6777H63.019ZM63.019 20.0506H67.1898C69.4391 20.0506 71.2044 19.7389 72.4853 19.1158C73.7662 18.4615 74.4067 17.3086 74.4067 15.657C74.4067 14.0991 73.735 12.993 72.3916 12.3386C71.0794 11.6843 69.3611 11.3571 67.2366 11.3571C66.3306 11.3571 65.5183 11.3727 64.7997 11.4038C64.1124 11.435 63.5189 11.4817 63.019 11.544V20.0506Z" fill="white"/>
<path d="M96.3493 35.2883C98.0988 35.2883 99.4266 35.1949 100.333 35.0078V28.7449C100.02 28.6514 99.5672 28.5578 98.9736 28.4644C98.38 28.3709 97.7239 28.3242 97.0054 28.3242C96.3806 28.3242 95.7401 28.3709 95.0841 28.4644C94.4591 28.5578 93.8812 28.7292 93.35 28.9785C92.8502 29.2278 92.4441 29.5861 92.1316 30.0535C91.8193 30.4897 91.663 31.0507 91.663 31.7361C91.663 33.0761 92.0848 34.0108 92.9284 34.5405C93.7718 35.039 94.9122 35.2883 96.3493 35.2883ZM95.8807 14.209C97.7552 14.209 99.3329 14.4427 100.614 14.9101C101.895 15.3775 102.91 16.0318 103.66 16.8731C104.441 17.7144 104.988 18.7427 105.3 19.9578C105.644 21.1419 105.816 22.4507 105.816 23.884V38.7002C104.941 38.8873 103.613 39.1054 101.832 39.3547C100.083 39.6351 98.0988 39.7752 95.8807 39.7752C94.4123 39.7752 93.0688 39.6351 91.8505 39.3547C90.6321 39.0742 89.5855 38.6224 88.7106 37.9992C87.8672 37.3761 87.1954 36.5659 86.6955 35.5688C86.2269 34.5716 85.9927 33.3409 85.9927 31.8764C85.9927 30.4742 86.2582 29.2902 86.7893 28.3242C87.3516 27.3583 88.1014 26.5792 89.0387 25.9873C89.9759 25.364 91.0538 24.9278 92.2722 24.6785C93.5219 24.3981 94.8184 24.2578 96.1619 24.2578C96.7867 24.2578 97.4427 24.3047 98.13 24.3981C98.8173 24.4604 99.5516 24.5851 100.333 24.7721V23.8373C100.333 23.1828 100.254 22.5597 100.098 21.9677C99.9421 21.3757 99.6609 20.8616 99.2548 20.4252C98.8799 19.9578 98.3644 19.5995 97.7084 19.3502C97.0835 19.1011 96.2868 18.9764 95.3183 18.9764C94.0062 18.9764 92.8033 19.0699 91.7099 19.2568C90.6164 19.4438 89.726 19.6619 89.0387 19.9111L88.3358 15.3307C89.0544 15.0814 90.1009 14.8321 91.4756 14.5828C92.8502 14.3336 94.3185 14.209 95.8807 14.209Z" fill="white"/>
<path d="M126.725 26.4081C126.725 23.853 126.397 22.0147 125.74 20.893C125.116 19.74 123.928 19.1635 122.179 19.1635C121.555 19.1635 120.867 19.2103 120.117 19.3038C119.367 19.3973 118.805 19.4752 118.43 19.5375V39.2614H112.76V15.6114C113.853 15.2997 115.275 15.0038 117.024 14.7233C118.805 14.443 120.679 14.3027 122.648 14.3027C124.334 14.3027 125.709 14.5208 126.771 14.9571C127.865 15.3933 128.771 15.9697 129.49 16.6864C129.834 16.4371 130.271 16.1723 130.801 15.8918C131.333 15.6114 131.927 15.3621 132.582 15.144C133.238 14.8947 133.926 14.6921 134.644 14.5364C135.394 14.3806 136.144 14.3027 136.894 14.3027C138.8 14.3027 140.362 14.5831 141.58 15.144C142.83 15.6737 143.799 16.4371 144.486 17.4342C145.205 18.4002 145.689 19.5842 145.939 20.9864C146.219 22.3574 146.361 23.8687 146.361 25.5201V39.2614H140.69V26.4081C140.69 23.853 140.377 22.0147 139.752 20.893C139.128 19.74 137.925 19.1635 136.144 19.1635C135.238 19.1635 134.379 19.3194 133.567 19.6309C132.755 19.9114 132.145 20.1918 131.739 20.4723C131.989 21.2513 132.161 22.077 132.255 22.9494C132.349 23.8219 132.395 24.7566 132.395 25.7538V39.2614H126.725V26.4081Z" fill="white"/>
<path d="M159.024 39.2612H153.353V14.8167H159.024V39.2612ZM159.634 7.6656C159.634 8.72501 159.29 9.56632 158.602 10.1895C157.915 10.8127 157.103 11.1243 156.165 11.1243C155.198 11.1243 154.369 10.8127 153.682 10.1895C152.994 9.56632 152.65 8.72501 152.65 7.6656C152.65 6.57501 152.994 5.71813 153.682 5.09494C154.369 4.47175 155.198 4.16016 156.165 4.16016C157.103 4.16016 157.915 4.47175 158.602 5.09494C159.29 5.71813 159.634 6.57501 159.634 7.6656Z" fill="white"/>
<path d="M171.928 24.35C172.647 23.6022 173.413 22.8076 174.225 21.9664C175.037 21.0938 175.834 20.2369 176.614 19.3957C177.397 18.5232 178.131 17.6974 178.818 16.9185C179.537 16.1084 180.145 15.4072 180.646 14.8152H187.346C185.785 16.5602 184.128 18.3674 182.379 20.2369C180.661 22.1065 178.927 23.9293 177.177 25.7055C178.115 26.4845 179.098 27.4348 180.129 28.5565C181.161 29.6471 182.161 30.8155 183.129 32.0619C184.097 33.3083 185.004 34.5548 185.847 35.8012C186.69 37.0474 187.393 38.2004 187.956 39.2598H181.395C180.832 38.2938 180.176 37.2812 179.426 36.2217C178.708 35.1624 177.927 34.1341 177.084 33.1369C176.24 32.1398 175.381 31.2051 174.507 30.3326C173.631 29.429 172.773 28.6655 171.928 28.0424V39.2598H166.259V3.92502L171.928 2.99023V24.35Z" fill="white"/>
<path d="M197.787 39.2612H192.116V14.8167H197.787V39.2612ZM198.396 7.6656C198.396 8.72501 198.053 9.56632 197.365 10.1895C196.678 10.8127 195.866 11.1243 194.928 11.1243C193.959 11.1243 193.132 10.8127 192.444 10.1895C191.757 9.56632 191.413 8.72501 191.413 7.6656C191.413 6.57501 191.757 5.71813 192.444 5.09494C193.132 4.47175 193.959 4.16016 194.928 4.16016C195.866 4.16016 196.678 4.47175 197.365 5.09494C198.053 5.71813 198.396 6.57501 198.396 7.6656Z" fill="white"/>
<path d="M159.704 7.57284C159.704 9.68952 157.984 11.4054 155.862 11.4054C153.74 11.4054 152.019 9.68952 152.019 7.57284C152.019 5.45615 153.74 3.74023 155.862 3.74023C157.984 3.74023 159.704 5.45615 159.704 7.57284Z" fill="#FF2E00"/>
<path d="M199.069 7.57284C199.069 9.68952 197.348 11.4054 195.226 11.4054C193.104 11.4054 191.384 9.68952 191.384 7.57284C191.384 5.45615 193.104 3.74023 195.226 3.74023C197.348 3.74023 199.069 5.45615 199.069 7.57284Z" fill="#FF2E00"/>
</g>
<defs>
<clipPath id="clip0">
<rect width="200" height="43" fill="white"/>
</clipPath>
</defs>
</svg>
