<svg width="18" height="18" viewBox="0 0 18 18" fill="none" xmlns="http://www.w3.org/2000/svg">
<path d="M1.5 15H16.5V16.5H1.5V15ZM3 9H4.5V14.25H3V9ZM6.75 9H8.25V14.25H6.75V9ZM9.75 9H11.25V14.25H9.75V9ZM13.5 9H15V14.25H13.5V9ZM1.5 5.25L9 1.5L16.5 5.25V8.25H1.5V5.25ZM3 6.177V6.75H15V6.177L9 3.177L3 6.177ZM9 6C8.80109 6 8.61032 5.92098 8.46967 5.78033C8.32902 5.63968 8.25 5.44891 8.25 5.25C8.25 5.05109 8.32902 4.86032 8.46967 4.71967C8.61032 4.57902 8.80109 4.5 9 4.5C9.19891 4.5 9.38968 4.57902 9.53033 4.71967C9.67098 4.86032 9.75 5.05109 9.75 5.25C9.75 5.44891 9.67098 5.63968 9.53033 5.78033C9.38968 5.92098 9.19891 6 9 6Z" fill="#FF2E00"/>
</svg>
