<svg width="24" height="24" viewBox="0 0 24 24" fill="none" xmlns="http://www.w3.org/2000/svg">
<path d="M11.9988 3.27148C10.795 3.27148 9.81592 4.25054 9.81592 5.45439C9.81592 6.65824 10.795 7.63725 11.9988 7.63725C13.2027 7.63725 14.1817 6.65819 14.1817 5.45439C14.1817 4.25059 13.2026 3.27148 11.9988 3.27148ZM11.9988 6.54636C11.3969 6.54636 10.9069 6.05632 10.9069 5.45439C10.9069 4.85247 11.3969 4.36243 11.9988 4.36243C12.6008 4.36243 13.0908 4.85247 13.0908 5.45439C13.0908 6.05632 12.6008 6.54636 11.9988 6.54636Z" fill="#FF2E00"/>
<path d="M23.4545 9.81816C23.756 9.81816 24 9.57567 24 9.27422V7.09265C24 6.90037 23.8988 6.72196 23.7331 6.62393L13.0632 0.287426C13.0584 0.284205 13.0536 0.281545 13.0488 0.278886C12.3856 -0.0886303 11.6378 -0.099778 10.9362 0.286352L0.26688 6.62393C0.101199 6.72191 0 6.90037 0 7.09265V9.27422C0 9.57567 0.243971 9.81816 0.545471 9.81816H2.18183V19.6368C0.978493 19.6368 0 20.6152 0 21.8184V23.4546C0 23.756 0.243971 24 0.545471 24H23.4545C23.756 24 24 23.7561 24 23.4546V21.8184C24 20.6152 23.0215 19.6368 21.8182 19.6368V9.81816H23.4545ZM22.9091 21.8182V22.9091H1.09089V21.8182C1.09089 21.2168 1.58042 20.7273 2.18178 20.7273H2.72725H21.2727H21.8182C22.4195 20.7272 22.9091 21.2168 22.9091 21.8182ZM3.27272 19.6363V9.81816H5.45456V19.6363H3.27272ZM6.54545 19.6363V9.81816H9.81817V19.6363H6.54545ZM10.9091 19.6363V9.81816H13.0909V19.6363H10.9091ZM14.1818 19.6363V9.81816H17.4545V19.6363H14.1818ZM18.5455 19.6363V9.81816H20.7273V19.6363H18.5455ZM1.09089 8.72727V7.40146L11.4774 1.23099C11.8173 1.04404 12.1784 1.04455 12.514 1.22726L22.9091 7.40146V8.72727H1.09089Z" fill="#FF2E00"/>
</svg>
