<svg width="18" height="19" viewBox="0 0 18 19" fill="none" xmlns="http://www.w3.org/2000/svg">
<path d="M17.3333 15.6667H0.666656V14.0001H1.49999V8.19258C1.49999 4.03592 4.85832 0.666748 8.99999 0.666748C13.1417 0.666748 16.5 4.03592 16.5 8.19258V14.0001H17.3333V15.6667ZM3.16666 14.0001H14.8333V8.19258C14.8333 4.95675 12.2217 2.33341 8.99999 2.33341C5.77832 2.33341 3.16666 4.95675 3.16666 8.19258V14.0001ZM6.91666 16.5001H11.0833C11.0833 17.0526 10.8638 17.5825 10.4731 17.9732C10.0824 18.3639 9.55252 18.5834 8.99999 18.5834C8.44746 18.5834 7.91755 18.3639 7.52685 17.9732C7.13615 17.5825 6.91666 17.0526 6.91666 16.5001Z" fill="#7C8DB5"/>
</svg>
