<svg width="16" height="18" viewBox="0 0 16 18" fill="none" xmlns="http://www.w3.org/2000/svg">
<path d="M7.59771 8.67062C8.82151 8.67062 9.88123 8.24339 10.7471 7.40047C11.6129 6.55769 12.0519 5.52649 12.0519 4.33517C12.0519 3.14426 11.6129 2.11293 10.7469 1.26987C9.88095 0.427228 8.82137 0 7.59771 0C6.37377 0 5.31434 0.427228 4.44848 1.27001C3.58262 2.11279 3.14355 3.14413 3.14355 4.33517C3.14355 5.52649 3.58262 6.55783 4.44862 7.40061C5.31462 8.24325 6.3742 8.67062 7.59771 8.67062Z" fill="#7B8794"/>
<path d="M15.3912 13.8417C15.3662 13.4909 15.3157 13.1083 15.2413 12.7043C15.1663 12.2973 15.0696 11.9125 14.9539 11.5608C14.8344 11.1973 14.6719 10.8383 14.471 10.4943C14.2625 10.1373 14.0175 9.82635 13.7427 9.5705C13.4553 9.30285 13.1034 9.08766 12.6965 8.93069C12.291 8.77455 11.8417 8.69545 11.361 8.69545C11.1722 8.69545 10.9897 8.77084 10.6371 8.99428C10.4201 9.13202 10.1663 9.29132 9.88295 9.46751C9.64071 9.61774 9.31253 9.75851 8.90719 9.88595C8.51172 10.0105 8.11018 10.0737 7.71386 10.0737C7.31755 10.0737 6.91615 10.0105 6.52026 9.88595C6.11533 9.75864 5.78716 9.61788 5.54519 9.46765C5.26457 9.2931 5.01061 9.1338 4.79037 8.99414C4.43822 8.77071 4.25551 8.69531 4.06673 8.69531C3.5859 8.69531 3.13668 8.77455 2.73133 8.93083C2.32471 9.08752 1.9727 9.30271 1.68502 9.57064C1.41032 9.82662 1.16525 10.1374 0.957002 10.4943C0.756233 10.8383 0.5937 11.1972 0.474057 11.5609C0.358505 11.9126 0.26186 12.2973 0.186801 12.7043C0.112447 13.1078 0.0619378 13.4905 0.0369652 13.8421C0.0124158 14.1865 0 14.544 0 14.905C0 15.8446 0.306867 16.6053 0.911995 17.1663C1.50964 17.7198 2.30044 18.0007 3.2621 18.0007H12.1665C13.1281 18.0007 13.9186 17.72 14.5164 17.1663C15.1217 16.6057 15.4286 15.8449 15.4286 14.9049C15.4284 14.5422 15.4159 14.1845 15.3912 13.8417Z" fill="#7B8794"/>
</svg>
