<svg width="25" height="24" viewBox="0 0 25 24" fill="none" xmlns="http://www.w3.org/2000/svg">
<path d="M24.1874 9.06931C24.0303 8.5622 23.5992 8.20203 23.0893 8.15407L16.1622 7.49773L13.4231 0.807668C13.2211 0.317373 12.7612 0 12.2501 0C11.739 0 11.2791 0.317373 11.0771 0.808815L8.33796 7.49773L1.40981 8.15407C0.900769 8.20317 0.470827 8.5622 0.312804 9.06931C0.15478 9.57642 0.300718 10.1326 0.685798 10.4833L5.92182 15.275L4.37784 22.3721C4.26486 22.8939 4.45896 23.4333 4.87389 23.7463C5.09691 23.9144 5.35784 24 5.62097 24C5.84785 24 6.07289 23.9362 6.27486 23.8101L12.2501 20.0836L18.2231 23.8101C18.6602 24.0845 19.2112 24.0594 19.6252 23.7463C20.0403 23.4323 20.2342 22.8927 20.1213 22.3721L18.5773 15.275L23.8133 10.4842C24.1984 10.1326 24.3454 9.57738 24.1874 9.06931Z" fill="white"/>
</svg>
