<svg width="16" height="14" viewBox="0 0 16 14" fill="none" xmlns="http://www.w3.org/2000/svg">
<path d="M0.333768 1.7806C2.52971 3.71185 6.38289 7.1095 7.51539 8.16889C7.66742 8.31188 7.83049 8.38457 7.99977 8.38457C8.16871 8.38457 8.33149 8.31256 8.48317 8.17026C9.61664 7.10983 13.4698 3.71185 15.6658 1.7806C15.8025 1.6606 15.8234 1.44966 15.7127 1.30294C15.4568 0.963918 15.0753 0.769531 14.6664 0.769531H1.33311C0.924268 0.769531 0.542737 0.963918 0.286893 1.30298C0.176205 1.44966 0.197049 1.6606 0.333768 1.7806Z" fill="#2D82B7"/>
<path d="M15.8067 2.82719C15.6885 2.77008 15.5495 2.79 15.4512 2.87723C13.0159 5.02107 9.90788 7.76904 8.93 8.68408C8.38116 9.19858 7.61944 9.19858 7.06931 8.6834C6.027 7.70816 2.53675 4.62691 0.548813 2.8772C0.449844 2.78997 0.310531 2.77073 0.193344 2.82716C0.0755312 2.88398 0 3.00636 0 3.14123V11.8465C0 12.6101 0.597969 13.2311 1.33334 13.2311H14.6667C15.402 13.2311 16 12.6101 16 11.8465V3.14123C16 3.00636 15.9245 2.88366 15.8067 2.82719Z" fill="#2D82B7"/>
</svg>
