<svg width="26" height="26" viewBox="0 0 26 26" fill="none" xmlns="http://www.w3.org/2000/svg">
<path d="M25.1232 23.3381L25.123 23.3379L19.2634 17.572C20.7766 15.7702 21.6955 13.462 21.6955 10.9368V10.9367C21.6947 5.16484 16.9427 0.5 11.0974 0.5C5.252 0.5 0.5 5.16484 0.5 10.9368C0.5 16.7088 5.252 21.3736 11.0974 21.3736C13.4636 21.3736 15.6477 20.6068 17.4116 19.3155L23.3224 25.1322C23.8202 25.6226 24.6247 25.6226 25.1225 25.1322C25.6252 24.6378 25.625 23.8325 25.1232 23.3381ZM11.0974 18.8448C6.64734 18.8448 3.05362 15.2968 3.05362 10.9368C3.05362 6.57687 6.64734 3.02884 11.0974 3.02884C15.5474 3.02884 19.1411 6.57687 19.1411 10.9368C19.1411 15.2968 15.5474 18.8448 11.0974 18.8448Z" fill="#FF2E00" stroke="#FF2E00"/>
</svg>
