<svg width="23" height="16" viewBox="0 0 23 16" fill="none" xmlns="http://www.w3.org/2000/svg">
<path d="M16.5 5.2L21.713 1.55C21.788 1.49746 21.8759 1.4665 21.9672 1.4605C22.0586 1.4545 22.1498 1.4737 22.231 1.51599C22.3122 1.55829 22.3802 1.62206 22.4276 1.70035C22.4751 1.77865 22.5001 1.86846 22.5 1.96V14.04C22.5001 14.1315 22.4751 14.2214 22.4276 14.2996C22.3802 14.3779 22.3122 14.4417 22.231 14.484C22.1498 14.5263 22.0586 14.5455 21.9672 14.5395C21.8759 14.5335 21.788 14.5025 21.713 14.45L16.5 10.8V15C16.5 15.2652 16.3946 15.5196 16.2071 15.7071C16.0196 15.8946 15.7652 16 15.5 16H1.5C1.23478 16 0.98043 15.8946 0.792893 15.7071C0.605357 15.5196 0.5 15.2652 0.5 15V1C0.5 0.734784 0.605357 0.48043 0.792893 0.292893C0.98043 0.105357 1.23478 0 1.5 0H15.5C15.7652 0 16.0196 0.105357 16.2071 0.292893C16.3946 0.48043 16.5 0.734784 16.5 1V5.2ZM4.5 4V6H6.5V4H4.5Z" fill="#FF2E00"/>
</svg>
