<svg width="84" height="72" viewBox="0 0 84 72" fill="none" xmlns="http://www.w3.org/2000/svg">
<path d="M17.3793 11.5996L0 25.9808V72.0008H84V25.9808L66.6207 11.5996H17.3793Z" fill="#FF2E00"/>
<path d="M84 25.9808L72.4138 38.9239H11.5862L0 25.9808L17.3793 11.5996H66.6207L84 25.9808Z" fill="#EFF6FF"/>
<path d="M59.3792 57.6191H68.0688V60.4954H59.3792V57.6191Z" fill="#D9EEFF"/>
<path d="M70.9653 57.6191H76.7584V60.4954H70.9653V57.6191Z" fill="#D9EEFF"/>
<path d="M55.0347 63.373H60.8278V66.2493H55.0347V63.373Z" fill="#D9EEFF"/>
<path d="M63.7241 63.373H76.7586V66.2493H63.7241V63.373Z" fill="#D9EEFF"/>
<path d="M69.5171 47.5527H75.3102V53.3053H69.5171V47.5527Z" fill="#2D82B7"/>
<path d="M45.7042 38.9231L63.7376 18.33C65.6494 16.1469 66.6243 13.3073 66.4536 10.4193C66.2829 7.53122 64.9802 4.82433 62.8244 2.87827L62.8244 2.87826C60.705 0.965051 57.9252 -0.0645258 55.0618 0.00313555C52.1983 0.0707969 49.471 1.2305 47.4457 3.24165L41.9261 8.72253L36.4065 3.24165C34.3812 1.2305 31.6538 0.0707969 28.7904 0.00313555C25.9269 -0.0645258 23.1471 0.965051 21.0278 2.87826L21.0277 2.87827C18.872 4.82433 17.5692 7.53122 17.3986 10.4193C17.2279 13.3073 18.2028 16.1469 20.1145 18.33L38.148 38.9231H45.7042Z" fill="#2D82B7"/>
<path d="M64.7358 23.9746L66.5722 21.8759L68.7591 23.7627L66.9227 25.8614L64.7358 23.9746Z" fill="#FF2E00"/>
<path d="M64.754 28.3621L55.5049 38.9233H51.667L62.5689 26.4746L64.754 28.3621Z" fill="#FF2E00"/>
<path d="M65.5295 31.3984L67.5206 29.1229L69.7077 31.0098L67.7166 33.2854L65.5295 31.3984Z" fill="#FF2E00"/>
<path d="M66.2656 34.9774L62.8096 38.9232H58.9717L64.0787 33.0898L66.2656 34.9774Z" fill="#FF2E00"/>
<path d="M14.3572 31.0684L16.5442 29.1814L18.5353 31.457L16.3483 33.3439L14.3572 31.0684Z" fill="#FF2E00"/>
<path d="M25.0913 38.9232H21.2533L17.7974 34.9774L19.9825 33.0898L25.0913 38.9232Z" fill="#FF2E00"/>
<path d="M15.2458 23.8086L17.4327 21.9218L19.2691 24.0205L17.0822 25.9073L15.2458 23.8086Z" fill="#FF2E00"/>
<path d="M32.3326 38.9233H28.4947L19.2456 28.3621L21.4307 26.4746L32.3326 38.9233Z" fill="#FF2E00"/>
</svg>
