<svg width="77" height="18" viewBox="0 0 77 18" fill="none" xmlns="http://www.w3.org/2000/svg">
<path d="M71.1491 12.2405C70.7495 12.7832 69.9383 12.7832 69.5387 12.2405L66.3623 7.92693C65.8761 7.26663 66.3475 6.33398 67.1676 6.33398L73.5202 6.33398C74.3403 6.33398 74.8117 7.26663 74.3255 7.92693L71.1491 12.2405Z" fill="#7B8794"/>
<rect x="40" y="4.33398" width="18" height="10.206" fill="#019F24"/>
<rect x="46.1016" y="4.33398" width="5.49152" height="10.206" fill="white"/>
<path opacity="0.7" d="M4.35449 10.0918H7.02051V11.0215H4.34766V13.9541H3.41113V11.0215H0.697266V10.0918H3.41797V7.19336H4.35449V10.0918ZM8.46973 15L8.3125 13.8789L11.8467 9.95508C12.0837 9.69076 12.3115 9.34896 12.5303 8.92969C12.7536 8.51042 12.9154 8.15495 13.0156 7.86328L13.1729 7.43262C13.1729 6.86751 13.0156 6.43001 12.7012 6.12012C12.3867 5.80566 11.9401 5.64844 11.3613 5.64844C10.3952 5.64844 9.63411 5.92871 9.07812 6.48926L8.68164 5.46387C9.31055 4.87142 10.2311 4.5752 11.4434 4.5752C12.373 4.5752 13.1136 4.82812 13.665 5.33398C14.2165 5.83529 14.4922 6.50749 14.4922 7.35059C14.474 7.41439 14.4466 7.50098 14.4102 7.61035C14.3737 7.71517 14.2939 7.92253 14.1709 8.23242C14.0524 8.54232 13.9271 8.83626 13.7949 9.11426C13.6628 9.39225 13.4941 9.69759 13.2891 10.0303C13.0885 10.363 12.8835 10.641 12.6738 10.8643L9.78906 13.9473H14.5264L14.4512 15H8.46973ZM18.7168 15.1572C18.1061 15.1572 17.5615 15.0775 17.083 14.918C16.609 14.7585 16.2627 14.5739 16.0439 14.3643L16.4268 13.3594C17.0693 13.8652 17.835 14.1182 18.7236 14.1182C19.4072 14.1182 19.9495 13.9495 20.3506 13.6123C20.7562 13.2705 20.959 12.7943 20.959 12.1836C20.959 11.8509 20.9066 11.5615 20.8018 11.3154C20.7015 11.0648 20.5648 10.8643 20.3916 10.7139C20.223 10.5589 20.0042 10.4359 19.7354 10.3447C19.471 10.249 19.1976 10.1829 18.915 10.1465C18.637 10.1055 18.3135 10.0804 17.9443 10.0713C17.8988 10.0713 17.8304 10.0713 17.7393 10.0713C17.6481 10.0667 17.5798 10.0645 17.5342 10.0645V9.0459H17.876C18.195 9.04134 18.4753 9.02539 18.7168 8.99805C18.9629 8.96615 19.2067 8.91146 19.4482 8.83398C19.6943 8.75651 19.8971 8.65397 20.0566 8.52637C20.2161 8.39876 20.346 8.22786 20.4463 8.01367C20.5465 7.79948 20.5967 7.54655 20.5967 7.25488C20.5967 6.16113 19.9701 5.61426 18.7168 5.61426C18.2656 5.61426 17.8418 5.68034 17.4453 5.8125C17.0488 5.94466 16.7093 6.1224 16.4268 6.3457L16.0439 5.34766C16.723 4.83268 17.7005 4.5752 18.9766 4.5752C19.4915 4.5752 19.9678 4.6709 20.4053 4.8623C20.8428 5.04915 21.2028 5.33854 21.4854 5.73047C21.7679 6.11784 21.9092 6.57357 21.9092 7.09766C21.9092 7.73568 21.752 8.25977 21.4375 8.66992C21.123 9.08008 20.681 9.37402 20.1113 9.55176C20.7493 9.68848 21.2484 9.98698 21.6084 10.4473C21.973 10.9076 22.1553 11.4909 22.1553 12.1973C22.1553 13.0951 21.834 13.8128 21.1914 14.3506C20.5488 14.8883 19.724 15.1572 18.7168 15.1572ZM30.543 12.4639H29.3809V15H28.2324V12.4639H23.6113V11.418L28.1025 4.77344H29.3809V11.4727H30.6387L30.543 12.4639ZM28.2324 6.3252L24.8145 11.4727H28.2324V6.3252Z" fill="#646A86"/>
</svg>
