<svg width="16" height="13" viewBox="0 0 16 13" fill="none" xmlns="http://www.w3.org/2000/svg">
<path d="M0.333768 1.01107C2.52971 2.94232 6.38289 6.33997 7.51539 7.39936C7.66742 7.54235 7.83049 7.61504 7.99977 7.61504C8.16871 7.61504 8.33149 7.54303 8.48317 7.40073C9.61664 6.34029 13.4698 2.94232 15.6658 1.01107C15.8025 0.891065 15.8234 0.680127 15.7127 0.533412C15.4568 0.194387 15.0753 0 14.6664 0H1.33311C0.924268 0 0.542737 0.194387 0.286893 0.533445C0.176205 0.680127 0.197049 0.891065 0.333768 1.01107Z" fill="#7B8794"/>
<path d="M15.8067 2.05766C15.6885 2.00055 15.5495 2.02047 15.4512 2.1077C13.0159 4.25154 9.90788 6.99951 8.93 7.91455C8.38116 8.42905 7.61944 8.42905 7.06931 7.91387C6.027 6.93863 2.53675 3.85738 0.548813 2.10767C0.449844 2.02044 0.310531 2.0012 0.193344 2.05763C0.0755312 2.11445 0 2.23683 0 2.3717V11.0769C0 11.8406 0.597969 12.4616 1.33334 12.4616H14.6667C15.402 12.4616 16 11.8406 16 11.0769V2.3717C16 2.23683 15.9245 2.11413 15.8067 2.05766Z" fill="#7B8794"/>
</svg>
