<svg width="24" height="24" viewBox="0 0 24 24" fill="none" xmlns="http://www.w3.org/2000/svg">
<path d="M2.41697 5.26384C5.16189 7.6779 9.97837 11.925 11.394 13.2492C11.584 13.4279 11.7879 13.5188 11.9995 13.5188C12.2106 13.5188 12.4141 13.4288 12.6037 13.2509C14.0206 11.9254 18.837 7.6779 21.582 5.26384C21.7529 5.11383 21.779 4.85016 21.6406 4.66677C21.3208 4.24298 20.8439 4 20.3328 4H3.66615C3.15509 4 2.67818 4.24298 2.35837 4.66681C2.22001 4.85016 2.24607 5.11383 2.41697 5.26384Z" fill="#FF2E00"/>
<path d="M21.7583 6.57354C21.6106 6.50215 21.4369 6.52706 21.314 6.63609C18.2699 9.31589 14.3848 12.7508 13.1625 13.8947C12.4764 14.5378 11.5243 14.5378 10.8366 13.8938C9.53375 12.6747 5.17094 8.82319 2.68602 6.63605C2.5623 6.52702 2.38816 6.50296 2.24168 6.5735C2.09441 6.64453 2 6.7975 2 6.96609V17.8476C2 18.8022 2.74746 19.5784 3.66668 19.5784H20.3334C21.2525 19.5784 22 18.8022 22 17.8476V6.96609C22 6.7975 21.9056 6.64413 21.7583 6.57354Z" fill="#FF2E00"/>
</svg>
