<svg width="27" height="24" viewBox="0 0 27 24" fill="none" xmlns="http://www.w3.org/2000/svg">
<path d="M24.6874 2.34871C23.3415 0.834151 21.4947 0 19.4869 0C17.9861 0 16.6116 0.492299 15.4016 1.46311C14.791 1.95314 14.2378 2.55267 13.75 3.25243C13.2624 2.55288 12.709 1.95314 12.0982 1.46311C10.8884 0.492299 9.51393 0 8.01311 0C6.00526 0 4.15829 0.834151 2.81239 2.34871C1.48256 3.84557 0.75 5.89051 0.75 8.10709C0.75 10.3885 1.56944 12.4769 3.32874 14.6795C4.90256 16.6497 7.16451 18.6497 9.78391 20.9657C10.6783 21.7567 11.6922 22.6532 12.7449 23.6081C13.023 23.8609 13.3799 24 13.75 24C14.1199 24 14.477 23.8609 14.7547 23.6085C15.8074 22.6534 16.8219 21.7565 17.7167 20.9651C20.3357 18.6495 22.5976 16.6497 24.1715 14.6792C25.9308 12.4769 26.75 10.3885 26.75 8.10688C26.75 5.89051 26.0174 3.84557 24.6874 2.34871Z" fill="white"/>
</svg>
