<svg width="16" height="16" viewBox="0 0 16 16" fill="none" xmlns="http://www.w3.org/2000/svg">
<g clip-path="url(#clip0)">
<path d="M8 3C5.23859 3 3 5.23856 3 8C3 10.7614 5.23859 13 8 13C10.7614 13 13 10.7614 13 8C13 5.23856 10.7614 3 8 3ZM10.9688 10.1875C10.9688 10.4464 10.7589 10.6562 10.5 10.6562H5.5C5.24113 10.6562 5.03125 10.4464 5.03125 10.1875V9.875C5.03125 8.91741 5.60878 8.09259 6.43359 7.72931C6.14334 7.37797 5.96875 6.92775 5.96875 6.4375C5.96875 5.31747 6.87997 4.40625 8 4.40625C9.12003 4.40625 10.0312 5.31747 10.0312 6.4375C10.0312 6.92775 9.85666 7.37797 9.56641 7.72931C10.3912 8.09259 10.9688 8.91741 10.9688 9.875V10.1875Z" fill="#7B8794"/>
<path d="M8.62516 8.46875H7.37516C6.65257 8.46875 6.05551 9.01662 5.97754 9.71875H10.0228C9.94482 9.01662 9.34776 8.46875 8.62516 8.46875Z" fill="#7B8794"/>
<path d="M8 7.53125C8.60406 7.53125 9.09375 7.04156 9.09375 6.4375C9.09375 5.83344 8.60406 5.34375 8 5.34375C7.39594 5.34375 6.90625 5.83344 6.90625 6.4375C6.90625 7.04156 7.39594 7.53125 8 7.53125Z" fill="#7B8794"/>
<path d="M15.531 0H13.031C12.7722 0 12.5623 0.209875 12.5623 0.46875V2.77459L11.8516 3.48531C12.0895 3.68859 12.3112 3.91028 12.5145 4.14822L13.2252 3.4375H15.531C15.7899 3.4375 15.9998 3.22762 15.9998 2.96875V0.46875C15.9998 0.209875 15.7899 0 15.531 0Z" fill="#7B8794"/>
<path d="M15.531 12.5623H13.2252L12.5145 11.8516C12.3112 12.0895 12.0895 12.3112 11.8516 12.5145L12.5623 13.2252V15.531C12.5623 15.7899 12.7722 15.9998 13.031 15.9998H15.531C15.7899 15.9998 15.9998 15.7899 15.9998 15.531V13.031C15.9998 12.7721 15.7899 12.5623 15.531 12.5623Z" fill="#7B8794"/>
<path d="M3.48531 11.8516L2.77459 12.5623H0.46875C0.209875 12.5623 0 12.7721 0 13.031V15.531C0 15.7899 0.209875 15.9998 0.46875 15.9998H2.96875C3.22762 15.9998 3.4375 15.7899 3.4375 15.531V13.2252L4.14822 12.5144C3.91028 12.3112 3.68859 12.0895 3.48531 11.8516Z" fill="#7B8794"/>
<path d="M0.46875 3.4375H2.77459L3.48531 4.14819C3.68859 3.91025 3.91028 3.68856 4.14822 3.48528L3.4375 2.77459V0.46875C3.4375 0.209875 3.22762 0 2.96875 0H0.46875C0.209875 0 0 0.209875 0 0.46875V2.96875C0 3.22762 0.209875 3.4375 0.46875 3.4375Z" fill="#7B8794"/>
</g>
<defs>
<clipPath id="clip0">
<rect width="16" height="16" fill="white"/>
</clipPath>
</defs>
</svg>
