<svg width="14" height="15" viewBox="0 0 14 15" fill="none" xmlns="http://www.w3.org/2000/svg">
<path d="M7.33329 9.50605V10.8994C6.72991 10.6861 6.08414 10.6206 5.45023 10.7086C4.81631 10.7965 4.21276 11.0353 3.69025 11.4049C3.16774 11.7744 2.74152 12.2639 2.4474 12.8323C2.15328 13.4007 1.99984 14.0314 1.99996 14.6714L0.666626 14.6707C0.666419 13.8566 0.852573 13.0533 1.21083 12.3223C1.56908 11.5913 2.08992 10.952 2.73344 10.4534C3.37696 9.95481 4.12608 9.61014 4.9234 9.44582C5.72071 9.28149 6.54507 9.30187 7.33329 9.50539V9.50605ZM5.99996 8.67139C3.78996 8.67139 1.99996 6.88139 1.99996 4.67139C1.99996 2.46139 3.78996 0.671387 5.99996 0.671387C8.20996 0.671387 9.99996 2.46139 9.99996 4.67139C9.99996 6.88139 8.20996 8.67139 5.99996 8.67139ZM5.99996 7.33805C7.47329 7.33805 8.66663 6.14472 8.66663 4.67139C8.66663 3.19805 7.47329 2.00472 5.99996 2.00472C4.52663 2.00472 3.33329 3.19805 3.33329 4.67139C3.33329 6.14472 4.52663 7.33805 5.99996 7.33805ZM9.99996 11.3381V9.33805H11.3333V11.3381H13.3333V12.6714H11.3333V14.6714H9.99996V12.6714H7.99996V11.3381H9.99996Z" fill="#FF2E00"/>
</svg>
