<svg width="14" height="15" viewBox="0 0 14 15" fill="none" xmlns="http://www.w3.org/2000/svg">
<path d="M7.20499 9.41751C7.42929 9.45839 7.58317 9.65998 7.58317 9.88798V10.1869C7.58317 10.532 7.2397 10.7743 6.89918 10.7183C6.50383 10.6533 6.09962 10.6478 5.70011 10.7032C5.06619 10.7912 4.46264 11.0299 3.94012 11.3995C3.41761 11.769 2.9914 12.2586 2.69728 12.827C2.48005 13.2468 2.33955 13.7005 2.28099 14.167C2.24658 14.4411 2.02577 14.6659 1.74949 14.6658L1.41613 14.6656C1.14013 14.6655 0.914014 14.4412 0.939762 14.1664C0.999878 13.5249 1.17591 12.8981 1.4607 12.3169C1.81895 11.5859 2.3398 10.9466 2.98332 10.448C3.62684 9.94944 4.37595 9.60477 5.17327 9.44045C5.84391 9.30223 6.53368 9.29516 7.20499 9.41751ZM6.24984 8.66602C4.03984 8.66602 2.24984 6.87602 2.24984 4.66602C2.24984 2.45602 4.03984 0.666016 6.24984 0.666016C8.45984 0.666016 10.2498 2.45602 10.2498 4.66602C10.2498 6.87602 8.45984 8.66602 6.24984 8.66602ZM6.24984 7.33268C7.72317 7.33268 8.9165 6.13935 8.9165 4.66602C8.9165 3.19268 7.72317 1.99935 6.24984 1.99935C4.7765 1.99935 3.58317 3.19268 3.58317 4.66602C3.58317 6.13935 4.7765 7.33268 6.24984 7.33268ZM9.74984 11.3327C10.026 11.3327 10.2498 11.1088 10.2498 10.8327V9.83268C10.2498 9.55654 10.4737 9.33268 10.7498 9.33268H11.0832C11.3593 9.33268 11.5832 9.55654 11.5832 9.83268V10.8327C11.5832 11.1088 11.807 11.3327 12.0832 11.3327H13.0832C13.3593 11.3327 13.5832 11.5565 13.5832 11.8327V12.166C13.5832 12.4422 13.3593 12.666 13.0832 12.666H12.0832C11.807 12.666 11.5832 12.8899 11.5832 13.166V14.166C11.5832 14.4422 11.3593 14.666 11.0832 14.666H10.7498C10.4737 14.666 10.2498 14.4422 10.2498 14.166V13.166C10.2498 12.8899 10.026 12.666 9.74984 12.666H8.74984C8.47369 12.666 8.24984 12.4422 8.24984 12.166V11.8327C8.24984 11.5565 8.47369 11.3327 8.74984 11.3327H9.74984Z" fill="#FF2E00"/>
</svg>
