<svg width="35" height="32" viewBox="0 0 35 32" fill="none" xmlns="http://www.w3.org/2000/svg">
<rect x="0.5" width="34" height="32" rx="4" fill="#07004D"/>
<path d="M25 13H18.25C18.0511 13 17.8603 13.079 17.7197 13.2197C17.579 13.3603 17.5 13.5511 17.5 13.75V18.25C17.5 18.4489 17.579 18.6397 17.7197 18.7803C17.8603 18.921 18.0511 19 18.25 19H25V22C25 22.1989 24.921 22.3897 24.7803 22.5303C24.6397 22.671 24.4489 22.75 24.25 22.75H10.75C10.5511 22.75 10.3603 22.671 10.2197 22.5303C10.079 22.3897 10 22.1989 10 22V10C10 9.80109 10.079 9.61032 10.2197 9.46967C10.3603 9.32902 10.5511 9.25 10.75 9.25H24.25C24.4489 9.25 24.6397 9.32902 24.7803 9.46967C24.921 9.61032 25 9.80109 25 10V13ZM19.75 15.25H22V16.75H19.75V15.25Z" fill="white"/>
</svg>
