<svg width="24" height="24" viewBox="0 0 24 24" fill="none" xmlns="http://www.w3.org/2000/svg">
<path d="M5.61822 11.9994C5.61824 10.8517 5.92926 9.72546 6.51822 8.7404V4.69141H2.47322C0.869388 6.79026 0.000488281 9.35841 0.000488281 11.9999C0.000488281 14.6414 0.869388 17.2095 2.47322 19.3084H6.51322V15.2594C5.92584 14.2735 5.61655 13.147 5.61822 11.9994Z" fill="#FBBD00"/>
<path d="M12.0053 18.3821L9.19629 21.1912L12.0053 24.0002C14.6422 24.0078 17.207 23.1389 19.2963 21.5302V17.4941H15.2603C14.2749 18.0775 13.1504 18.3843 12.0053 18.3821Z" fill="#0F9D58"/>
<path d="M6.51314 15.2676L2.47314 19.3076C2.79295 19.7239 3.13934 20.119 3.51014 20.4906C4.62039 21.6069 5.94101 22.4919 7.39557 23.0944C8.85013 23.6969 10.4097 24.0049 11.9841 24.0006V18.3826C10.8805 18.3819 9.79594 18.0944 8.83685 17.5483C7.87775 17.0023 7.07701 16.2163 6.51314 15.2676Z" fill="#31AA52"/>
<path d="M24.0001 12.0165C23.999 11.2883 23.932 10.5617 23.8001 9.84552L23.6951 9.26953H12.0161V14.8875H17.7021C17.1573 15.9683 16.3144 16.8706 15.2731 17.4875L19.3091 21.5235C19.7247 21.2037 20.1192 20.8573 20.4901 20.4865C21.6059 19.3768 22.4906 18.0568 23.0931 16.6029C23.6956 15.1491 24.0039 13.5902 24.0001 12.0165Z" fill="#3C79E6"/>
<path d="M16.518 7.48204L17.018 7.98204L20.99 4.01004L20.49 3.51004C19.3798 2.39376 18.0592 1.50876 16.6046 0.906269C15.15 0.303778 13.5904 -0.00423921 12.016 4.40654e-05L9.20703 2.80904L12.016 5.61804C12.8524 5.61565 13.681 5.77916 14.4537 6.09912C15.2265 6.41907 15.9281 6.88912 16.518 7.48204Z" fill="#CF2D48"/>
<path d="M11.9851 5.61804V4.40654e-05C10.4107 -0.00423921 8.85111 0.303778 7.39655 0.906269C5.94199 1.50876 4.62137 2.39376 3.51112 3.51004C3.14036 3.88094 2.79397 4.27543 2.47412 4.69104L6.51412 8.73104C7.07812 7.78249 7.87891 6.99675 8.83799 6.45086C9.79708 5.90496 10.8816 5.61763 11.9851 5.61704V5.61804Z" fill="#EB4132"/>
</svg>
