<svg width="16" height="16" viewBox="0 0 16 16" fill="none" xmlns="http://www.w3.org/2000/svg">
<path d="M8 7C7.383 7 7 7.479 7 8.25C7 9.021 7.383 9.5 8 9.5C8.617 9.5 9 9.021 9 8.25C9 7.479 8.617 7 8 7Z" fill="#7B8794"/>
<path d="M8 0C3.582 0 0 3.582 0 8C0 12.418 3.582 16 8 16C12.418 16 16 12.418 16 8C16 3.582 12.418 0 8 0ZM13 8.5C13 9.603 12.103 10.5 11 10.5C10.396 10.5 9.86 10.225 9.493 9.8C9.138 10.238 8.621 10.5 8 10.5C6.822 10.5 6 9.575 6 8.25C6 6.925 6.822 6 8 6C8.395 6 8.745 6.112 9.043 6.3C9.12 6.124 9.295 6 9.5 6C9.776 6 10 6.224 10 6.5V8.5C10 9.052 10.448 9.5 11 9.5C11.552 9.5 12 9.052 12 8.5V8.209C12 6.084 10.511 4.29 8.535 4.035C7.222 3.867 5.959 4.319 5.067 5.279C4.176 6.24 3.818 7.543 4.088 8.854C4.393 10.336 5.586 11.558 7.055 11.892C7.997 12.106 8.937 12 9.772 11.585C10.021 11.464 10.319 11.563 10.443 11.811C10.565 12.059 10.464 12.359 10.217 12.482C9.523 12.826 8.773 13.001 8.004 13.001C7.617 13.001 7.225 12.957 6.833 12.867C4.959 12.441 3.497 10.945 3.108 9.055C2.773 7.424 3.22 5.8 4.334 4.599C5.45 3.398 7.027 2.835 8.663 3.042C11.136 3.362 13 5.583 13 8.209V8.5Z" fill="#7B8794"/>
</svg>
