<svg width="19" height="15" viewBox="0 0 19 15" fill="none" xmlns="http://www.w3.org/2000/svg">
<path fill-rule="evenodd" clip-rule="evenodd" d="M11.0832 3.54163C10.8732 3.54163 10.6718 3.62503 10.5234 3.7735C10.3749 3.92197 10.2915 4.12333 10.2915 4.33329V10.6666C10.2915 10.8766 10.3749 11.078 10.5234 11.2264C10.6718 11.3749 10.8732 11.4583 11.0832 11.4583H14.2498C14.4598 11.4583 14.6612 11.3749 14.8096 11.2264C14.9581 11.078 15.0415 10.8766 15.0415 10.6666V4.33329C15.0415 4.12333 14.9581 3.92197 14.8096 3.7735C14.6612 3.62503 14.4598 3.54163 14.2498 3.54163H11.0832ZM13.4582 5.12496H11.8748V9.87496H13.4582V5.12496Z" fill="#7B8794"/>
<path d="M4.74967 3.54163C4.53971 3.54163 4.33835 3.62503 4.18988 3.7735C4.04142 3.92197 3.95801 4.12333 3.95801 4.33329C3.95801 4.54326 4.04142 4.74462 4.18988 4.89309C4.33835 5.04155 4.53971 5.12496 4.74967 5.12496H7.91634C8.12631 5.12496 8.32767 5.04155 8.47613 4.89309C8.6246 4.74462 8.70801 4.54326 8.70801 4.33329C8.70801 4.12333 8.6246 3.92197 8.47613 3.7735C8.32767 3.62503 8.12631 3.54163 7.91634 3.54163H4.74967Z" fill="#7B8794"/>
<path d="M4.74967 6.70837C4.53971 6.70837 4.33835 6.79178 4.18988 6.94025C4.04142 7.08871 3.95801 7.29008 3.95801 7.50004C3.95801 7.71 4.04142 7.91137 4.18988 8.05983C4.33835 8.2083 4.53971 8.29171 4.74967 8.29171H7.91634C8.12631 8.29171 8.32767 8.2083 8.47613 8.05983C8.6246 7.91137 8.70801 7.71 8.70801 7.50004C8.70801 7.29008 8.6246 7.08871 8.47613 6.94025C8.32767 6.79178 8.12631 6.70837 7.91634 6.70837H4.74967Z" fill="#7B8794"/>
<path d="M3.95801 10.6667C3.95801 10.4567 4.04142 10.2553 4.18988 10.1069C4.33835 9.95841 4.53971 9.875 4.74967 9.875H7.91634C8.12631 9.875 8.32767 9.95841 8.47613 10.1069C8.6246 10.2553 8.70801 10.4567 8.70801 10.6667C8.70801 10.8766 8.6246 11.078 8.47613 11.2265C8.32767 11.3749 8.12631 11.4583 7.91634 11.4583H4.74967C4.53971 11.4583 4.33835 11.3749 4.18988 11.2265C4.04142 11.078 3.95801 10.8766 3.95801 10.6667Z" fill="#7B8794"/>
<path fill-rule="evenodd" clip-rule="evenodd" d="M3.1665 0.375C2.53661 0.375 1.93252 0.625223 1.48713 1.07062C1.04173 1.51602 0.791504 2.12011 0.791504 2.75V12.25C0.791504 12.8799 1.04173 13.484 1.48713 13.9294C1.93252 14.3748 2.53661 14.625 3.1665 14.625H15.8332C16.4631 14.625 17.0671 14.3748 17.5125 13.9294C17.9579 13.484 18.2082 12.8799 18.2082 12.25V2.75C18.2082 2.12011 17.9579 1.51602 17.5125 1.07062C17.0671 0.625223 16.4631 0.375 15.8332 0.375H3.1665ZM15.8332 1.95833H3.1665C2.95654 1.95833 2.75518 2.04174 2.60671 2.19021C2.45824 2.33867 2.37484 2.54004 2.37484 2.75V12.25C2.37484 12.46 2.45824 12.6613 2.60671 12.8098C2.75518 12.9583 2.95654 13.0417 3.1665 13.0417H15.8332C16.0431 13.0417 16.2445 12.9583 16.393 12.8098C16.5414 12.6613 16.6248 12.46 16.6248 12.25V2.75C16.6248 2.54004 16.5414 2.33867 16.393 2.19021C16.2445 2.04174 16.0431 1.95833 15.8332 1.95833Z" fill="#7B8794"/>
</svg>
