<svg width="40" height="40" viewBox="0 0 40 40" fill="none" xmlns="http://www.w3.org/2000/svg">
<circle cx="20" cy="20" r="19.5" stroke="#CBD2D9"/>
<path d="M21 26.9998H27V17.9778L20 12.5338L13 17.9778V26.9998H19V20.9998H21V26.9998ZM29 27.9998C29 28.265 28.8946 28.5194 28.7071 28.7069C28.5196 28.8944 28.2652 28.9998 28 28.9998H12C11.7348 28.9998 11.4804 28.8944 11.2929 28.7069C11.1054 28.5194 11 28.265 11 27.9998V17.4898C10.9999 17.3374 11.0346 17.187 11.1015 17.0501C11.1684 16.9132 11.2657 16.7933 11.386 16.6998L19.386 10.4778C19.5615 10.3412 19.7776 10.2671 20 10.2671C20.2224 10.2671 20.4385 10.3412 20.614 10.4778L28.614 16.6998C28.7343 16.7933 28.8316 16.9132 28.8985 17.0501C28.9654 17.187 29.0001 17.3374 29 17.4898V27.9998Z" fill="#CBD2D9"/>
</svg>
