<svg width="40" height="40" viewBox="0 0 40 40" fill="none" xmlns="http://www.w3.org/2000/svg">
<circle cx="20" cy="20" r="19.5" stroke="#CBD2D9"/>
<path d="M21.06 16.1102L22.475 17.5252C23.1251 18.1753 23.6408 18.947 23.9926 19.7963C24.3444 20.6456 24.5255 21.5559 24.5255 22.4752C24.5255 23.3945 24.3444 24.3049 23.9926 25.1542C23.6408 26.0035 23.1251 26.7752 22.475 27.4252L22.121 27.7782C20.8082 29.0911 19.0276 29.8286 17.171 29.8286C15.3144 29.8286 13.5338 29.0911 12.221 27.7782C10.9082 26.4654 10.1707 24.6848 10.1707 22.8282C10.1707 20.9716 10.9082 19.1911 12.221 17.8782L13.636 19.2932C13.1684 19.7568 12.7969 20.3081 12.5429 20.9156C12.289 21.5231 12.1575 22.1748 12.156 22.8333C12.1546 23.4917 12.2832 24.144 12.5345 24.7526C12.7859 25.3612 13.1549 25.9142 13.6205 26.3798C14.0861 26.8453 14.6391 27.2144 15.2477 27.4657C15.8563 27.717 16.5085 27.8456 17.167 27.8442C17.8254 27.8428 18.4771 27.7113 19.0846 27.4573C19.6921 27.2033 20.2435 26.8319 20.707 26.3642L21.061 26.0102C21.9984 25.0726 22.5249 23.8011 22.5249 22.4752C22.5249 21.1494 21.9984 19.8779 21.061 18.9402L19.646 17.5252L21.061 16.1112L21.06 16.1102ZM27.778 22.1212L26.364 20.7072C26.8316 20.2437 27.2031 19.6923 27.4571 19.0848C27.7111 18.4773 27.8425 17.8256 27.844 17.1672C27.8454 16.5087 27.7168 15.8565 27.4655 15.2479C27.2142 14.6393 26.8451 14.0863 26.3795 13.6207C25.9139 13.1551 25.361 12.7861 24.7524 12.5348C24.1437 12.2834 23.4915 12.1548 22.833 12.1563C22.1746 12.1577 21.5229 12.2892 20.9154 12.5432C20.3079 12.7971 19.7566 13.1686 19.293 13.6362L18.939 13.9902C18.0017 14.9279 17.4751 16.1994 17.4751 17.5252C17.4751 18.8511 18.0017 20.1226 18.939 21.0602L20.354 22.4752L18.939 23.8892L17.525 22.4752C16.8749 21.8252 16.3592 21.0535 16.0074 20.2042C15.6556 19.3549 15.4745 18.4445 15.4745 17.5252C15.4745 16.6059 15.6556 15.6956 16.0074 14.8463C16.3592 13.997 16.8749 13.2253 17.525 12.5752L17.879 12.2222C19.1918 10.9094 20.9724 10.1719 22.829 10.1719C24.6856 10.1719 26.4662 10.9094 27.779 12.2222C29.0918 13.5351 29.8294 15.3156 29.8294 17.1722C29.8294 19.0288 29.0918 20.8094 27.779 22.1222L27.778 22.1212Z" fill="#CBD2D9"/>
</svg>
