<svg width="42" height="42" viewBox="0 0 42 42" fill="none" xmlns="http://www.w3.org/2000/svg">
<g clip-path="url(#clip0_845:4674)">
<path d="M0.0239792 14.0875C0.0239792 9.10446 0.0239792 6.61293 1.00911 4.71647C1.83927 3.11835 3.14233 1.81529 4.74045 0.985132C6.63691 0 9.12844 0 14.1115 0H27.9365C32.9195 0 35.411 0 37.3075 0.985132C38.9056 1.81529 40.2087 3.11835 41.0388 4.71647C42.024 6.61293 42.024 9.10446 42.024 14.0875V27.9125C42.024 32.8955 42.024 35.3871 41.0388 37.2835C40.2087 38.8817 38.9056 40.1847 37.3075 41.0149C35.411 42 32.9195 42 27.9365 42H14.1115C9.12844 42 6.63691 42 4.74045 41.0149C3.14233 40.1847 1.83927 38.8817 1.00911 37.2835C0.0239792 35.3871 0.0239792 32.8955 0.0239792 27.9125V14.0875Z" fill="url(#paint0_radial_845:4674)"/>
<path d="M0.0239792 14.0875C0.0239792 9.10446 0.0239792 6.61293 1.00911 4.71647C1.83927 3.11835 3.14233 1.81529 4.74045 0.985132C6.63691 0 9.12844 0 14.1115 0H27.9365C32.9195 0 35.411 0 37.3075 0.985132C38.9056 1.81529 40.2087 3.11835 41.0388 4.71647C42.024 6.61293 42.024 9.10446 42.024 14.0875V27.9125C42.024 32.8955 42.024 35.3871 41.0388 37.2835C40.2087 38.8817 38.9056 40.1847 37.3075 41.0149C35.411 42 32.9195 42 27.9365 42H14.1115C9.12844 42 6.63691 42 4.74045 41.0149C3.14233 40.1847 1.83927 38.8817 1.00911 37.2835C0.0239792 35.3871 0.0239792 32.8955 0.0239792 27.9125V14.0875Z" fill="url(#paint1_radial_845:4674)"/>
<path d="M21.0006 5.72754C16.8529 5.72754 16.3324 5.74568 14.7034 5.81981C13.0775 5.89427 11.9677 6.15168 10.9967 6.52936C9.99219 6.91945 9.14013 7.44127 8.29125 8.29049C7.44173 9.1394 6.91992 9.99149 6.52857 10.9957C6.14995 11.9671 5.89223 13.0772 5.81905 14.7025C5.74619 16.3316 5.7271 16.8524 5.7271 21.0003C5.7271 25.1481 5.74555 25.667 5.81937 27.2961C5.89414 28.922 6.15154 30.0319 6.52889 31.0029C6.91929 32.0074 7.44109 32.8595 8.29029 33.7084C9.13886 34.558 9.99092 35.0811 10.9948 35.4712C11.9665 35.8489 13.0766 36.1063 14.7021 36.1807C16.3311 36.2549 16.8514 36.273 20.9987 36.273C25.1467 36.273 25.6657 36.2549 27.2947 36.1807C28.9206 36.1063 30.0316 35.8489 31.0033 35.4712C32.0075 35.0811 32.8583 34.558 33.7068 33.7084C34.5564 32.8595 35.0782 32.0074 35.4695 31.0033C35.845 30.0319 36.1027 28.9217 36.179 27.2964C36.2522 25.6674 36.2713 25.1481 36.2713 21.0003C36.2713 16.8524 36.2522 16.3319 36.179 14.7028C36.1027 13.0769 35.845 11.9671 35.4695 10.996C35.0782 9.99149 34.5564 9.1394 33.7068 8.29049C32.8573 7.44095 32.0078 6.91913 31.0024 6.52936C30.0288 6.15168 28.9183 5.89427 27.2925 5.81981C25.6634 5.74568 25.1448 5.72754 20.9959 5.72754H21.0006ZM19.6306 8.47981C20.0372 8.47918 20.4909 8.47981 21.0006 8.47981C25.0783 8.47981 25.5616 8.49445 27.1719 8.56763C28.6609 8.63572 29.4691 8.88454 30.0074 9.09358C30.7202 9.3704 31.2283 9.70131 31.7625 10.2359C32.297 10.7704 32.6279 11.2795 32.9054 11.9922C33.1144 12.5299 33.3635 13.3381 33.4313 14.8272C33.5045 16.4372 33.5204 16.9209 33.5204 20.9968C33.5204 25.0727 33.5045 25.5563 33.4313 27.1663C33.3632 28.6554 33.1144 29.4636 32.9054 30.0013C32.6286 30.714 32.297 31.2215 31.7625 31.7558C31.228 32.2903 30.7205 32.6212 30.0074 32.898C29.4697 33.108 28.6609 33.3562 27.1719 33.4243C25.5619 33.4975 25.0783 33.5134 21.0006 33.5134C16.9226 33.5134 16.4393 33.4975 14.8294 33.4243C13.3403 33.3556 12.5322 33.1068 11.9935 32.8977C11.2808 32.6209 10.7717 32.29 10.2372 31.7554C9.70266 31.2209 9.37176 30.7131 9.09431 30C8.88527 29.4623 8.63614 28.6541 8.56837 27.165C8.49519 25.555 8.48056 25.0714 8.48056 20.9929C8.48056 16.9145 8.49519 16.4334 8.56837 14.8234C8.63646 13.3343 8.88527 12.5261 9.09431 11.9878C9.37112 11.275 9.70266 10.7659 10.2372 10.2314C10.7717 9.69686 11.2808 9.36595 11.9935 9.08849C12.5318 8.87849 13.3403 8.63031 14.8294 8.5619C16.2382 8.49827 16.7842 8.47918 19.6306 8.47599V8.47981ZM29.1528 11.0157C28.1411 11.0157 27.3202 11.8357 27.3202 12.8478C27.3202 13.8596 28.1411 14.6805 29.1528 14.6805C30.1646 14.6805 30.9855 13.8596 30.9855 12.8478C30.9855 11.836 30.1646 11.0151 29.1528 11.0151V11.0157ZM21.0006 13.1571C16.6694 13.1571 13.1577 16.6689 13.1577 21.0003C13.1577 25.3317 16.6694 28.8419 21.0006 28.8419C25.3319 28.8419 28.8423 25.3317 28.8423 21.0003C28.8423 16.6689 25.3316 13.1571 21.0003 13.1571H21.0006ZM21.0006 15.9094C23.812 15.9094 26.0914 18.1885 26.0914 21.0003C26.0914 23.8117 23.812 26.0912 21.0006 26.0912C18.1889 26.0912 15.9099 23.8117 15.9099 21.0003C15.9099 18.1885 18.1889 15.9094 21.0006 15.9094V15.9094Z" fill="white"/>
</g>
<defs>
<radialGradient id="paint0_radial_845:4674" cx="0" cy="0" r="1" gradientUnits="userSpaceOnUse" gradientTransform="translate(11.1803 45.2349) rotate(-90) scale(41.6251 38.7146)">
<stop stop-color="#FFDD55"/>
<stop offset="0.1" stop-color="#FFDD55"/>
<stop offset="0.5" stop-color="#FF543E"/>
<stop offset="1" stop-color="#C837AB"/>
</radialGradient>
<radialGradient id="paint1_radial_845:4674" cx="0" cy="0" r="1" gradientUnits="userSpaceOnUse" gradientTransform="translate(-7.01124 3.02561) rotate(78.6806) scale(18.6066 76.6972)">
<stop stop-color="#3771C8"/>
<stop offset="0.128" stop-color="#3771C8"/>
<stop offset="1" stop-color="#6600FF" stop-opacity="0"/>
</radialGradient>
<clipPath id="clip0_845:4674">
<rect width="42" height="42" fill="white"/>
</clipPath>
</defs>
</svg>
