<svg width="42" height="42" viewBox="0 0 42 42" fill="none" xmlns="http://www.w3.org/2000/svg">
<circle cx="21" cy="21" r="21" fill="url(#paint0_linear)"/>
<path d="M21.3595 9.59022C16.5344 9.59022 11.9525 9.161 10.2023 13.6526C9.47944 15.5077 9.58442 17.9169 9.58442 21.3667C9.58442 24.3938 9.48741 27.2389 10.2023 29.0794C11.9485 33.5737 16.5676 33.1431 21.3569 33.1431C25.9774 33.1431 30.7414 33.6242 32.5127 29.0794C33.237 27.2057 33.1307 24.8324 33.1307 21.3667C33.1307 16.7661 33.3845 13.7961 31.1533 11.5663C28.8942 9.30717 25.8392 9.59022 21.3542 9.59022H21.3595ZM20.3044 11.7124C30.3693 11.6965 31.6503 10.5776 30.9434 26.1214C30.6922 31.6189 26.5063 31.0156 21.3609 31.0156C11.979 31.0156 11.7093 30.7472 11.7093 21.3614C11.7093 11.8666 12.4535 11.7177 20.3044 11.7098V11.7124ZM27.6451 13.6672C26.865 13.6672 26.2325 14.2997 26.2325 15.0798C26.2325 15.8598 26.865 16.4924 27.6451 16.4924C28.4251 16.4924 29.0577 15.8598 29.0577 15.0798C29.0577 14.2997 28.4251 13.6672 27.6451 13.6672V13.6672ZM21.3595 15.319C18.0201 15.319 15.3132 18.0272 15.3132 21.3667C15.3132 24.7061 18.0201 27.413 21.3595 27.413C24.699 27.413 27.4046 24.7061 27.4046 21.3667C27.4046 18.0272 24.699 15.319 21.3595 15.319V15.319ZM21.3595 17.4412C26.5488 17.4412 26.5554 25.2922 21.3595 25.2922C16.1716 25.2922 16.1637 17.4412 21.3595 17.4412Z" fill="white"/>
<defs>
<linearGradient id="paint0_linear" x1="2.81995" y1="39.2637" x2="41.7358" y2="5.57587" gradientUnits="userSpaceOnUse">
<stop stop-color="#FFDD55"/>
<stop offset="0.5" stop-color="#FF543E"/>
<stop offset="1" stop-color="#C837AB"/>
</linearGradient>
</defs>
</svg>
