<svg width="42" height="42" viewBox="0 0 42 42" fill="none" xmlns="http://www.w3.org/2000/svg">
<circle cx="21" cy="21" r="21" fill="url(#paint0_linear_736:5431)"/>
<path d="M21.3593 9.59047C16.5342 9.59047 11.9522 9.16124 10.2021 13.6528C9.47919 15.5079 9.58418 17.9172 9.58418 21.3669C9.58418 24.3941 9.48717 27.2392 10.2021 29.0797C11.9482 33.5739 16.5674 33.1434 21.3566 33.1434C25.9771 33.1434 30.7411 33.6244 32.5125 29.0797C33.2367 27.206 33.1304 24.8326 33.1304 21.3669C33.1304 16.7664 33.3842 13.7963 31.1531 11.5665C28.894 9.30742 25.8389 9.59047 21.354 9.59047H21.3593ZM20.3042 11.7127C30.369 11.6967 31.6501 10.5778 30.9431 26.1216C30.6919 31.6192 26.506 31.0158 21.3606 31.0158C11.9788 31.0158 11.709 30.7474 11.709 21.3616C11.709 11.8668 12.4532 11.718 20.3042 11.71V11.7127ZM27.6449 13.6674C26.8648 13.6674 26.2323 14.3 26.2323 15.08C26.2323 15.8601 26.8648 16.4926 27.6449 16.4926C28.4249 16.4926 29.0574 15.8601 29.0574 15.08C29.0574 14.3 28.4249 13.6674 27.6449 13.6674ZM21.3593 15.3192C18.0198 15.3192 15.3129 18.0275 15.3129 21.3669C15.3129 24.7064 18.0198 27.4133 21.3593 27.4133C24.6987 27.4133 27.4043 24.7064 27.4043 21.3669C27.4043 18.0275 24.6987 15.3192 21.3593 15.3192ZM21.3593 17.4414C26.5485 17.4414 26.5552 25.2924 21.3593 25.2924C16.1714 25.2924 16.1634 17.4414 21.3593 17.4414Z" fill="white"/>
<defs>
<linearGradient id="paint0_linear_736:5431" x1="2.81995" y1="39.2637" x2="41.7358" y2="5.57587" gradientUnits="userSpaceOnUse">
<stop stop-color="#FFDD55"/>
<stop offset="0.5" stop-color="#FF543E"/>
<stop offset="1" stop-color="#C837AB"/>
</linearGradient>
</defs>
</svg>
