<svg width="18" height="18" viewBox="0 0 18 18" fill="none" xmlns="http://www.w3.org/2000/svg">
<path fill-rule="evenodd" clip-rule="evenodd" d="M4.50011 0H16.0716C17.1367 0 18.0002 0.863453 18.0002 1.92858V13.5001C18.0002 14.5652 17.1367 15.4287 16.0716 15.4287C15.7165 15.4287 15.4287 15.1408 15.4287 14.7858C15.4287 14.4307 15.7165 14.1429 16.0716 14.1429C16.4266 14.1429 16.7144 13.8551 16.7144 13.5V1.92858C16.7144 1.57352 16.4266 1.28571 16.0716 1.28571H4.50011C4.14506 1.28571 3.85724 1.57352 3.85724 1.92858C3.85724 2.28363 3.56946 2.57145 3.2144 2.57145C2.85935 2.57145 2.57153 2.28363 2.57153 1.92858C2.57153 0.863453 3.43499 0 4.50011 0ZM1.92858 3.21428H12.8572C13.9223 3.21428 14.7857 4.07773 14.7857 5.14286V16.0714C14.7857 17.1366 13.9223 18 12.8572 18H1.92858C0.863453 18 0 17.1366 0 16.0714V5.14286C0 4.07773 0.863453 3.21428 1.92858 3.21428ZM12.8572 16.7144C13.2122 16.7144 13.5 16.4265 13.5 16.0715V5.14286C13.5 4.7878 13.2122 4.49999 12.8572 4.49999H1.92858C1.57352 4.49999 1.28571 4.7878 1.28571 5.14286V16.0715C1.28571 16.4265 1.57352 16.7144 1.92858 16.7144H12.8572Z" fill="#7C8DB5"/>
</svg>
