<svg width="42" height="42" viewBox="0 0 42 42" fill="none" xmlns="http://www.w3.org/2000/svg">
<circle cx="21" cy="21" r="21" fill="#F9C66A"/>
<path fill-rule="evenodd" clip-rule="evenodd" d="M26.5117 21.1119L28.7542 18.8694C29.451 18.1726 29.8424 17.2275 29.8424 16.242C29.8424 15.2566 29.451 14.3115 28.7542 13.6147C28.0573 12.9178 27.1122 12.5264 26.1268 12.5264C25.1413 12.5264 24.1962 12.9178 23.4994 13.6147L21.2569 15.8571C20.5601 16.554 20.1686 17.4991 20.1686 18.4845C20.1686 18.9725 20.2647 19.4556 20.4515 19.9064C20.5258 20.0858 20.6139 20.2587 20.7147 20.4236L20.0551 21.0832C19.4762 20.7291 18.8062 20.5373 18.1164 20.5372C17.131 20.5372 16.1859 20.9285 15.489 21.6253L13.2465 23.8678C12.5497 24.5646 12.1582 25.5097 12.1582 26.4952C12.1582 26.9831 12.2543 27.4663 12.441 27.9171C12.6278 28.3679 12.9015 28.7775 13.2465 29.1225C13.5915 29.4676 14.0011 29.7413 14.4519 29.928C14.9027 30.1147 15.3859 30.2108 15.8739 30.2108C16.8593 30.2108 17.8044 29.8193 18.5012 29.1225L20.7433 26.8805C21.4402 26.1837 21.8317 25.2387 21.8318 24.2532C21.8318 23.5633 21.64 22.8931 21.2858 22.314L21.9456 21.6543C22.1104 21.7551 22.2831 21.8431 22.4624 21.9173C22.9132 22.1041 23.3964 22.2002 23.8843 22.2002C24.8698 22.2002 25.8148 21.8087 26.5117 21.1119ZM23.2118 20.3881C23.4074 20.4533 23.614 20.4875 23.8241 20.4878C24.3393 20.4884 24.8336 20.2846 25.1987 19.9212L27.5639 17.556C27.9273 17.1909 28.1311 16.6966 28.1305 16.1814C28.1299 15.6663 27.925 15.1724 27.5607 14.8081C27.1964 14.4438 26.7026 14.2389 26.1874 14.2383C25.6722 14.2377 25.1779 14.4415 24.8128 14.8049L22.4476 17.1701C22.0842 17.5352 21.8804 18.0295 21.881 18.5447C21.8813 18.755 21.9156 18.9617 21.9808 19.1575L22.6414 18.497C22.7222 18.4162 22.8181 18.352 22.9237 18.3083C23.0293 18.2646 23.1425 18.2421 23.2568 18.2421C23.371 18.2421 23.4842 18.2646 23.5898 18.3083C23.6954 18.352 23.7913 18.4162 23.8721 18.497C23.953 18.5778 24.0171 18.6737 24.0608 18.7793C24.1045 18.8849 24.127 18.9981 24.127 19.1124C24.127 19.2266 24.1045 19.3398 24.0608 19.4454C24.0171 19.551 23.953 19.6469 23.8721 19.7277L23.2118 20.3881ZM18.7892 22.3491L18.1288 23.0095C18.048 23.0903 17.9839 23.1863 17.9401 23.2919C17.8964 23.3975 17.8739 23.5106 17.8739 23.6249C17.8739 23.7392 17.8964 23.8524 17.9401 23.958C17.9839 24.0636 18.048 24.1595 18.1288 24.2403C18.292 24.4035 18.5134 24.4952 18.7442 24.4952C18.8585 24.4952 18.9716 24.4727 19.0772 24.429C19.1828 24.3852 19.2788 24.3211 19.3596 24.2403L20.0199 23.58C20.0851 23.7757 20.1194 23.9823 20.1196 24.1925C20.1202 24.7076 19.9165 25.202 19.553 25.5671L17.1879 27.9323C16.8228 28.2957 16.3284 28.4995 15.8132 28.4989C15.2981 28.4983 14.8042 28.2933 14.4399 27.9291C14.0757 27.5648 13.8708 27.0709 13.8702 26.5558C13.8696 26.0406 14.0733 25.5463 14.4367 25.1812L16.8019 22.816C17.167 22.4526 17.6614 22.2488 18.1765 22.2494C18.3867 22.2497 18.5934 22.2839 18.7892 22.3491Z" fill="white"/>
</svg>
