<svg width="21" height="24" viewBox="0 0 21 24" fill="none" xmlns="http://www.w3.org/2000/svg">
<path d="M15.8438 17.1562C16.3615 17.1562 16.7812 16.7365 16.7812 16.2188C16.7812 15.701 16.3615 15.2812 15.8438 15.2812C15.326 15.2812 14.9062 15.701 14.9062 16.2188C14.9062 16.7365 15.326 17.1562 15.8438 17.1562Z" fill="#FF2E00"/>
<path d="M20.0625 16.9688C20.5803 16.9688 21 16.549 21 16.0312V12.5625C21 10.4948 19.3177 8.8125 17.25 8.8125H16.1233V5.50622C16.1233 2.47008 13.5999 0 10.4983 0C7.39664 0 4.87327 2.47008 4.87327 5.50622V8.8125H3.75C1.68225 8.8125 0 10.4948 0 12.5625V20.25C0 22.3177 1.68225 24 3.75 24H17.25C19.3177 24 21 22.3177 21 20.25C21 19.7322 20.5803 19.3125 20.0625 19.3125C19.5447 19.3125 19.125 19.7322 19.125 20.25C19.125 21.2839 18.2839 22.125 17.25 22.125H3.75C2.71613 22.125 1.875 21.2839 1.875 20.25V12.5625C1.875 11.5286 2.71613 10.6875 3.75 10.6875H17.25C18.2839 10.6875 19.125 11.5286 19.125 12.5625V16.0312C19.125 16.549 19.5447 16.9688 20.0625 16.9688ZM14.2483 8.8125H6.74827V5.50622C6.74827 3.50395 8.43052 1.875 10.4983 1.875C12.566 1.875 14.2483 3.50395 14.2483 5.50622V8.8125Z" fill="#FF2E00"/>
<path d="M8.76562 17.1562C9.28339 17.1562 9.70312 16.7365 9.70312 16.2188C9.70312 15.701 9.28339 15.2812 8.76562 15.2812C8.24786 15.2812 7.82812 15.701 7.82812 16.2188C7.82812 16.7365 8.24786 17.1562 8.76562 17.1562Z" fill="#FF2E00"/>
<path d="M5.25 17.1562C5.76777 17.1562 6.1875 16.7365 6.1875 16.2188C6.1875 15.701 5.76777 15.2812 5.25 15.2812C4.73223 15.2812 4.3125 15.701 4.3125 16.2188C4.3125 16.7365 4.73223 17.1562 5.25 17.1562Z" fill="#FF2E00"/>
<path d="M12.2812 17.1562C12.799 17.1562 13.2188 16.7365 13.2188 16.2188C13.2188 15.701 12.799 15.2812 12.2812 15.2812C11.7635 15.2812 11.3438 15.701 11.3438 16.2188C11.3438 16.7365 11.7635 17.1562 12.2812 17.1562Z" fill="#FF2E00"/>
</svg>
