<svg width="15" height="18" viewBox="0 0 15 18" fill="none" xmlns="http://www.w3.org/2000/svg">
<path d="M12.7046 6.75H12.0996V4.5C12.0996 2.01825 9.92897 0 7.25979 0C4.5906 0 2.41993 2.01825 2.41993 4.5V6.75H1.81495C0.814709 6.75 0 7.50675 0 8.4375V16.3125C0 17.2432 0.814709 18 1.81495 18H12.7046C13.7049 18 14.5196 17.2432 14.5196 16.3125V8.4375C14.5196 7.50675 13.7049 6.75 12.7046 6.75ZM4.03321 4.5C4.03321 2.8455 5.48033 1.5 7.25979 1.5C9.03924 1.5 10.4864 2.8455 10.4864 4.5V6.75H4.03321V4.5ZM8.06643 12.5415V14.25C8.06643 14.664 7.70586 15 7.25979 15C6.81371 15 6.45314 14.664 6.45314 14.25V12.5415C5.97319 12.2812 5.6465 11.8027 5.6465 11.25C5.6465 10.4227 6.37006 9.75 7.25979 9.75C8.14951 9.75 8.87307 10.4227 8.87307 11.25C8.87307 11.8027 8.54638 12.2812 8.06643 12.5415Z" fill="#2D82B7"/>
</svg>
