<svg width="86" height="94" viewBox="0 0 86 94" fill="none" xmlns="http://www.w3.org/2000/svg">
<path fill-rule="evenodd" clip-rule="evenodd" d="M30.9016 10.3603C13.0637 15.448 0 31.8801 0 51.3625C0 74.9088 19.0758 94 42.6096 94C61.9533 94 78.2855 81.1064 83.4884 63.4413C84.0672 61.4791 82.9364 59.4043 80.9753 58.8254C79.0142 58.2464 76.9405 59.3723 76.3672 61.3291C72.0751 75.9169 58.5882 86.5696 42.6096 86.5696C23.1802 86.5696 7.4267 70.8077 7.4267 51.3627C7.4267 31.9177 23.1802 16.1611 42.6096 16.1611C44.3351 16.1611 45.7924 15.0245 46.2105 13.352C46.6338 11.6792 45.889 9.99053 44.3725 9.17023L28.1689 0.442177C26.3685 -0.528117 24.1072 0.152649 23.1374 1.95407C22.1676 3.7555 22.848 6.01792 24.6486 6.98822L30.9016 10.3603Z" fill="#FF2E00"/>
<path fill-rule="evenodd" clip-rule="evenodd" d="M56.4661 18.9968C57.8486 19.5918 59.215 20.2834 60.5493 21.0716C62.3068 22.117 64.5947 21.5273 65.6343 19.7688C66.6791 18.0103 66.0897 15.7211 64.3321 14.6757C62.7193 13.7214 61.0636 12.8851 59.3864 12.1614C57.5057 11.3573 55.3141 12.2365 54.5104 14.1182C53.7066 16 54.5854 18.1927 56.4661 18.9968Z" fill="#FF2E00"/>
<path fill-rule="evenodd" clip-rule="evenodd" d="M70.323 23.7915C68.7423 25.089 68.5172 27.4424 69.814 29.0239C70.7678 30.1927 71.6626 31.431 72.4825 32.75C73.5595 34.4869 75.8582 35.0177 77.5943 33.9347C79.3304 32.8517 79.8663 30.5571 78.7838 28.8201C77.7925 27.2225 76.71 25.7159 75.5527 24.3061C74.256 22.7246 71.9037 22.494 70.323 23.7915Z" fill="#FF2E00"/>
<path fill-rule="evenodd" clip-rule="evenodd" d="M79.8878 39.6803C77.8891 40.1038 76.6031 42.0821 77.0264 44.0871C77.3318 45.5613 77.5516 47.0786 77.6748 48.6226C77.8302 50.6652 79.6252 52.1984 81.6613 52.0376C83.7028 51.8768 85.2354 50.0862 85.08 48.0435C84.9299 46.1725 84.6675 44.339 84.2924 42.5484C83.8691 40.5434 81.8918 39.2567 79.8878 39.6803Z" fill="#FF2E00"/>
<path fill-rule="evenodd" clip-rule="evenodd" d="M42.6094 24.0312C27.5257 24.0312 15.2925 36.2654 15.2925 51.3625C15.2925 66.4597 27.5257 78.6938 42.6094 78.6938C57.6986 78.6938 69.9262 66.4597 69.9262 51.3625C69.9262 36.2654 57.6986 24.0312 42.6094 24.0312Z" fill="#EFF6FF"/>
<path fill-rule="evenodd" clip-rule="evenodd" d="M42.6096 25.4144C53.2245 29.162 60.8334 39.2892 60.8334 51.1964C60.8334 63.0982 53.2245 73.2254 42.6096 76.973C40.9913 77.5467 39.3034 77.9701 37.562 78.2275C39.1963 78.5385 40.8841 78.694 42.6096 78.694C57.6988 78.694 69.9265 66.4598 69.9265 51.3627C69.9265 36.2656 57.6988 24.0312 42.6096 24.0312C41.2379 24.0312 39.8875 24.1331 38.5641 24.3261C39.9519 24.5888 41.3075 24.9534 42.6096 25.4144Z" fill="#D9EEFF"/>
<path d="M42.6098 22.6133C26.7655 22.6133 13.875 35.5104 13.875 51.3632C13.875 67.2159 26.7653 80.113 42.6098 80.113C58.4543 80.113 71.3446 67.2158 71.3446 51.3632C71.3446 35.5106 58.4541 22.6133 42.6098 22.6133ZM65.2167 52.7331H68.4726C68.1542 58.8173 65.728 64.3513 61.9133 68.6186L59.5953 66.3031C59.0415 65.7498 58.1438 65.7503 57.5902 66.3048C57.0369 66.859 57.0377 67.7572 57.5918 68.3109L59.9113 70.6278C55.6502 74.4626 50.1154 76.9062 44.0274 77.2365V73.9281C44.0274 73.1446 43.3926 72.5097 42.6096 72.5097C41.8266 72.5097 41.1919 73.1447 41.1919 73.9281V77.2365C35.1049 76.9062 29.5709 74.4633 25.3101 70.6297L27.6285 68.3102C28.1821 67.7561 28.1821 66.8581 27.6285 66.3038C27.0747 65.7501 26.1772 65.7501 25.6232 66.3038L23.3077 68.6204C19.4922 64.353 17.0652 58.818 16.7468 52.7331H20.008C20.7912 52.7331 21.4257 52.0981 21.4257 51.3147C21.4257 50.5313 20.791 49.8962 20.008 49.8962H16.7529C17.0933 43.8242 19.5324 38.3045 23.3549 34.0525L25.6224 36.3248C25.8993 36.6024 26.2625 36.7412 26.6258 36.7412C26.9882 36.7412 27.3509 36.6029 27.6276 36.3265C28.1817 35.7729 28.1825 34.875 27.6292 34.3203L25.3632 32.0495C29.6169 28.243 35.1301 25.8185 41.1919 25.4896V28.6961C41.1919 29.4797 41.8266 30.1146 42.6096 30.1146C43.3926 30.1146 44.0274 29.4795 44.0274 28.6961V25.4896C50.0901 25.8185 55.6041 28.2436 59.8581 32.0509L57.5909 34.3192C57.0373 34.8733 57.0373 35.7713 57.5909 36.3255C57.8678 36.6024 58.2308 36.741 58.5936 36.741C58.9564 36.741 59.3193 36.6024 59.5962 36.3255L61.8661 34.0545C65.6876 38.3061 68.126 43.8252 68.4664 49.8962H65.2165C64.4333 49.8962 63.7988 50.5313 63.7988 51.3147C63.7988 52.0981 64.4337 52.7331 65.2167 52.7331Z" fill="#FF2E00"/>
<path d="M36.9528 34.3475C36.6515 33.6244 35.8206 33.2831 35.0985 33.584C34.3757 33.8856 34.0341 34.716 34.3354 35.4392L39.883 48.7145C40.11 49.2592 40.6372 49.5877 41.1923 49.5877C41.3741 49.5877 41.5591 49.5524 41.7373 49.4781C42.4601 49.1764 42.8018 48.346 42.5005 47.6228L36.9528 34.3475Z" fill="#FF2E00"/>
<path d="M53.8679 49.8965H47.1216C46.3384 49.8965 45.7039 50.5315 45.7039 51.3149C45.7039 52.0983 46.3386 52.7334 47.1216 52.7334H53.8679C54.6511 52.7334 55.2856 52.0983 55.2856 51.3149C55.2856 50.5315 54.6511 49.8965 53.8679 49.8965Z" fill="#FF2E00"/>
<path fill-rule="evenodd" clip-rule="evenodd" d="M47.1214 51.3129C47.1214 48.8198 45.1013 46.7988 42.6097 46.7988C40.1181 46.7988 38.0979 48.82 38.0979 51.3129C38.0979 53.8059 40.1181 55.8269 42.6097 55.8269C45.1013 55.8271 47.1214 53.8059 47.1214 51.3129Z" fill="#2D82B7"/>
</svg>
