<svg width="16" height="18" viewBox="0 0 16 18" fill="none" xmlns="http://www.w3.org/2000/svg">
<path d="M7.59761 8.67062C8.82141 8.67062 9.88112 8.24339 10.747 7.40047C11.6128 6.55769 12.0518 5.52649 12.0518 4.33517C12.0518 3.14426 11.6128 2.11293 10.7468 1.26987C9.88084 0.427227 8.82127 0 7.59761 0C6.37367 0 5.31423 0.427227 4.44838 1.27001C3.58252 2.11279 3.14345 3.14413 3.14345 4.33517C3.14345 5.52649 3.58252 6.55783 4.44852 7.40061C5.31452 8.24325 6.37409 8.67062 7.59761 8.67062Z" fill="#7B8794"/>
<path d="M15.3912 13.8411C15.3662 13.4903 15.3157 13.1077 15.2413 12.7037C15.1663 12.2967 15.0696 11.9119 14.9539 11.5602C14.8344 11.1967 14.6719 10.8377 14.471 10.4937C14.2625 10.1366 14.0175 9.82572 13.7427 9.56988C13.4553 9.30222 13.1034 9.08703 12.6965 8.93007C12.291 8.77392 11.8417 8.69482 11.361 8.69482C11.1722 8.69482 10.9897 8.77022 10.6371 8.99365C10.4201 9.13139 10.1663 9.29069 9.88295 9.46688C9.64071 9.61712 9.31253 9.75788 8.90719 9.88532C8.51172 10.0099 8.11018 10.073 7.71386 10.073C7.31755 10.073 6.91615 10.0099 6.52026 9.88532C6.11533 9.75802 5.78716 9.61726 5.54519 9.46702C5.26457 9.29247 5.01061 9.13317 4.79037 8.99351C4.43822 8.77008 4.25551 8.69468 4.06673 8.69468C3.5859 8.69468 3.13668 8.77392 2.73133 8.9302C2.32471 9.08689 1.9727 9.30209 1.68502 9.57001C1.41032 9.82599 1.16525 10.1368 0.957002 10.4937C0.756233 10.8377 0.5937 11.1965 0.474057 11.5603C0.358505 11.912 0.26186 12.2967 0.186801 12.7037C0.112447 13.1072 0.0619378 13.4899 0.0369652 13.8415C0.0124158 14.1859 0 14.5433 0 14.9044C0 15.844 0.306867 16.6046 0.911995 17.1656C1.50964 17.7192 2.30044 18 3.2621 18H12.1665C13.1281 18 13.9186 17.7193 14.5164 17.1656C15.1217 16.6051 15.4286 15.8443 15.4286 14.9042C15.4284 14.5416 15.4159 14.1838 15.3912 13.8411Z" fill="#7B8794"/>
</svg>
