<svg width="32" height="32" viewBox="0 0 32 32" fill="none" xmlns="http://www.w3.org/2000/svg">
<g filter="url(#filter0_b)">
<path d="M15.6468 32C24.2883 32 31.2936 24.8366 31.2936 16C31.2936 7.16344 24.2883 0 15.6468 0C7.00531 0 0 7.16344 0 16C0 24.8366 7.00531 32 15.6468 32Z" fill="white" fill-opacity="0.4"/>
</g>
<ellipse cx="15.6469" cy="16.0004" rx="9.38808" ry="9.6" fill="#F5F5F5"/>
<path d="M18.8822 15.1381C19.5377 15.5251 19.5377 16.4734 18.8822 16.8603L14.8082 19.2656C14.1415 19.6592 13.2998 19.1786 13.2998 18.4045L13.2998 13.594C13.2998 12.8198 14.1415 12.3393 14.8082 12.7328L18.8822 15.1381Z" fill="#787878"/>
<defs>
<filter id="filter0_b" x="-4" y="-4" width="39.2936" height="40" filterUnits="userSpaceOnUse" color-interpolation-filters="sRGB">
<feFlood flood-opacity="0" result="BackgroundImageFix"/>
<feGaussianBlur in="BackgroundImage" stdDeviation="2"/>
<feComposite in2="SourceAlpha" operator="in" result="effect1_backgroundBlur"/>
<feBlend mode="normal" in="SourceGraphic" in2="effect1_backgroundBlur" result="shape"/>
</filter>
</defs>
</svg>
