<svg width="18" height="18" viewBox="0 0 18 18" fill="none" xmlns="http://www.w3.org/2000/svg">
<path d="M8.92973 10.969C9.45187 10.969 9.95263 10.7616 10.3218 10.3924C10.6911 10.0232 10.8985 9.52244 10.8985 9.0003C10.8985 8.94264 10.8958 8.88551 10.8909 8.82909L8.75852 10.9615C8.81494 10.9664 8.8719 10.969 8.92973 10.969ZM15.4463 2.91053L14.6954 2.1603C14.669 2.13394 14.6332 2.11914 14.5959 2.11914C14.5587 2.11914 14.5229 2.13394 14.4965 2.1603L12.5749 4.08246C11.5148 3.54071 10.3232 3.26983 9.00004 3.26983C5.62152 3.26983 3.10082 5.0294 1.43793 8.54854C1.37109 8.69007 1.33643 8.84465 1.33643 9.00118C1.33643 9.1577 1.37109 9.31228 1.43793 9.45381C2.10238 10.8534 2.90248 11.9752 3.83822 12.8191L1.97863 14.678C1.95228 14.7044 1.93748 14.7402 1.93748 14.7774C1.93748 14.8147 1.95228 14.8505 1.97863 14.8768L2.72904 15.6273C2.75541 15.6536 2.79117 15.6684 2.82845 15.6684C2.86573 15.6684 2.90148 15.6536 2.92785 15.6273L15.4463 3.10952C15.4594 3.09645 15.4697 3.08095 15.4768 3.06387C15.4839 3.0468 15.4875 3.0285 15.4875 3.01002C15.4875 2.99154 15.4839 2.97324 15.4768 2.95617C15.4697 2.9391 15.4594 2.92359 15.4463 2.91053ZM5.83598 9.0003C5.83593 8.46593 5.97429 7.94067 6.23758 7.47567C6.50087 7.01067 6.88012 6.6218 7.33837 6.34693C7.79662 6.07206 8.31825 5.92058 8.85245 5.90723C9.38665 5.89388 9.9152 6.01913 10.3866 6.27077L9.53195 7.12541C9.18728 7.01505 8.81887 7.00176 8.46714 7.087C8.11541 7.17224 7.79396 7.35271 7.53805 7.60862C7.28214 7.86453 7.10167 8.18598 7.01643 8.53771C6.93119 8.88944 6.94448 9.25785 7.05484 9.60252L6.2002 10.4572C5.96036 10.0091 5.83523 9.50855 5.83598 9.0003Z" fill="#7B8794"/>
<path d="M16.5623 8.54717C15.9435 7.24404 15.2071 6.18145 14.3529 5.35938L11.8192 7.89326C12.0328 8.45157 12.0801 9.05978 11.9555 9.64441C11.8309 10.229 11.5396 10.7651 11.1169 11.1878C10.6943 11.6104 10.1582 11.9017 9.57359 12.0263C8.98896 12.1509 8.38075 12.1036 7.82244 11.89L5.67334 14.0391C6.67037 14.5005 7.77932 14.7312 9.00018 14.7312C12.3787 14.7312 14.8994 12.9716 16.5623 9.45244C16.6291 9.31091 16.6638 9.15633 16.6638 8.99981C16.6638 8.84328 16.6291 8.6887 16.5623 8.54717Z" fill="#7B8794"/>
</svg>
