<svg width="24" height="23" viewBox="0 0 24 23" fill="none" xmlns="http://www.w3.org/2000/svg">
<path fill-rule="evenodd" clip-rule="evenodd" d="M0.769228 3.79486H4.79331C5.13454 5.09188 6.317 6.05126 7.71956 6.05126C9.12212 6.05126 10.3046 5.09188 10.6458 3.79486H23.2307C23.6555 3.79486 23.9999 3.45045 23.9999 3.02563C23.9999 2.60081 23.6555 2.2564 23.2307 2.2564H10.6457C10.3045 0.959381 9.12201 0 7.71946 0C6.3169 0 5.13444 0.959381 4.79321 2.2564H0.769228C0.344409 2.2564 0 2.60081 0 3.02563C0 3.45045 0.344409 3.79486 0.769228 3.79486ZM7.71956 1.53846C8.53955 1.53846 9.20673 2.20563 9.20673 3.02563C9.20673 3.84562 8.53955 4.5128 7.71956 4.5128C6.89956 4.5128 6.23238 3.84562 6.23238 3.02563C6.23238 2.20563 6.89956 1.53846 7.71956 1.53846ZM23.2307 10.6585H18.1035C17.7623 9.36151 16.5798 8.40213 15.1773 8.40213C13.7747 8.40213 12.5923 9.36151 12.251 10.6585H0.769228C0.344409 10.6585 0 11.0029 0 11.4278C0 11.8526 0.344409 12.197 0.769228 12.197H12.2511C12.5924 13.4939 13.7748 14.4534 15.1774 14.4534C16.5799 14.4534 17.7624 13.4939 18.1036 12.197H23.2308C23.6556 12.197 24 11.8526 24 11.4278C24 11.0029 23.6555 10.6585 23.2307 10.6585ZM15.1774 12.9149C14.3574 12.9149 13.6902 12.2478 13.6902 11.4278C13.6902 10.6078 14.3574 9.94059 15.1774 9.94059C15.9974 9.94059 16.6645 10.6078 16.6645 11.4278C16.6645 12.2478 15.9974 12.9149 15.1774 12.9149ZM10.6457 19.0625H23.2307C23.6555 19.0625 23.9999 19.4069 23.9999 19.8318C23.9999 20.2566 23.6555 20.601 23.2307 20.601H10.6458C10.3046 21.898 9.12212 22.8574 7.71956 22.8574C6.317 22.8574 5.13454 21.898 4.79331 20.601H0.769228C0.344409 20.601 0 20.2566 0 19.8318C0 19.4069 0.344409 19.0625 0.769228 19.0625H4.79321C5.13444 17.7656 6.3169 16.8061 7.71946 16.8061C9.12201 16.8061 10.3045 17.7656 10.6457 19.0625ZM6.23238 19.8318C6.23238 20.6518 6.89956 21.3189 7.71956 21.3189C8.53955 21.3189 9.20673 20.6518 9.20673 19.8318C9.20673 19.0118 8.53955 18.3446 7.71956 18.3446C6.89956 18.3446 6.23238 19.0118 6.23238 19.8318Z" fill="#FF2E00"/>
</svg>
