<?xml version="1.0" standalone="no"?>
<!DOCTYPE svg PUBLIC "-//W3C//DTD SVG 20010904//EN"
 "http://www.w3.org/TR/2001/REC-SVG-20010904/DTD/svg10.dtd">
<svg version="1.0" xmlns="http://www.w3.org/2000/svg"
 width="119.000000pt" height="119.000000pt" viewBox="0 0 119.000000 119.000000"
 preserveAspectRatio="xMidYMid meet">

<g transform="translate(0.000000,119.000000) scale(0.100000,-0.100000)"
fill="#000000" stroke="none">
<path d="M589 1175 c-15 -8 -29 -21 -32 -29 -5 -14 -10 -14 -43 0 -49 21 -89
5 -106 -42 -9 -26 -18 -34 -35 -34 -38 0 -76 -45 -71 -83 3 -18 8 -39 12 -47
5 -12 -2 -18 -26 -25 -41 -12 -65 -56 -52 -94 5 -14 55 -64 112 -111 56 -47
109 -96 118 -110 81 -121 199 -158 315 -99 56 28 86 71 117 172 76 238 77 277
11 310 -43 21 -82 11 -115 -29 l-21 -26 -38 112 c-49 143 -80 171 -146 135z
m72 -57 c17 -32 89 -249 89 -269 0 -9 -20 -30 -45 -46 -54 -34 -80 -81 -71
-131 9 -55 27 -65 20 -11 -9 64 13 102 81 140 45 25 57 38 71 77 23 63 32 72
64 72 55 0 57 -18 16 -168 -55 -199 -86 -245 -177 -263 -80 -15 -152 20 -199
96 -12 19 -68 73 -125 120 -57 46 -105 90 -108 97 -7 20 12 48 32 48 10 0 47
-22 82 -50 63 -49 89 -60 89 -40 0 6 -32 50 -70 98 -72 89 -81 115 -47 136 19
12 47 -13 143 -129 23 -28 45 -47 49 -43 4 3 -21 55 -56 113 -64 110 -68 135
-25 143 26 5 41 -12 97 -109 76 -134 88 -129 43 22 -15 48 -24 95 -21 103 9
24 54 20 68 -6z"/>
<path d="M802 287 c-9 -10 -8 -18 2 -32 18 -25 48 -13 44 17 -4 27 -30 35 -46
15z"/>
<path d="M1126 284 c-4 -10 -1 -24 7 -31 19 -19 49 -5 45 21 -4 27 -43 34 -52
10z"/>
</g>
</svg>
