<svg width="23" height="24" viewBox="0 0 23 24" fill="none" xmlns="http://www.w3.org/2000/svg">
<path fill-rule="evenodd" clip-rule="evenodd" d="M17.9502 12.3673C19.2253 12.5403 20.4022 13.1277 21.3181 14.0598C22.3987 15.1591 22.9938 16.6141 22.9938 18.1566C22.9938 21.3787 20.3743 24 17.1544 24C15.4246 24 13.8257 23.2577 12.7137 21.9514H2.83173C1.27039 21.9514 0 20.681 0 19.1195V2.83173C0 1.27039 1.27039 0 2.83191 0H15.1185C16.6798 0 17.9502 1.27039 17.9502 2.83173V12.3673ZM1.40625 2.83173V19.1195C1.40625 19.9056 2.04584 20.545 2.83191 20.545H11.8237C11.4893 19.8007 11.315 18.9924 11.315 18.1566C11.315 15.1406 13.6099 12.6513 16.5439 12.345V2.83173C16.5439 2.04584 15.9045 1.40625 15.1185 1.40625H2.83191C2.04584 1.40625 1.40625 2.04584 1.40625 2.83173ZM13.6124 20.8251C14.4593 21.949 15.7502 22.5938 17.1544 22.5938C19.5989 22.5938 21.5876 20.6032 21.5876 18.1566C21.5876 16.9852 21.1357 15.8802 20.3152 15.0454C19.4956 14.2115 18.4016 13.741 17.2346 13.7203L17.2238 13.7201C17.2007 13.7197 17.1775 13.7194 17.1544 13.7194C14.71 13.7194 12.7211 15.7099 12.7211 18.1566C12.7211 19.1285 13.0294 20.0511 13.6124 20.8251ZM3.59802 4.6236H7.79443C8.18262 4.6236 8.49756 4.93835 8.49756 5.32672C8.49756 5.71509 8.18262 6.02985 7.79443 6.02985H3.59802C3.20966 6.02985 2.8949 5.71509 2.8949 5.32672C2.8949 4.93835 3.20966 4.6236 3.59802 4.6236ZM3.59802 7.43628H7.79443C8.18262 7.43628 8.49756 7.75104 8.49756 8.1394C8.49756 8.52777 8.18262 8.84253 7.79443 8.84253H3.59802C3.20966 8.84253 2.8949 8.52777 2.8949 8.1394C2.8949 7.75104 3.20966 7.43628 3.59802 7.43628ZM7.79443 10.249H3.59802C3.20966 10.249 2.8949 10.5637 2.8949 10.9521C2.8949 11.3405 3.20966 11.6552 3.59802 11.6552H7.79443C8.18262 11.6552 8.49756 11.3405 8.49756 10.9521C8.49756 10.5637 8.18262 10.249 7.79443 10.249ZM3.59802 13.0616H7.79443C8.18262 13.0616 8.49756 13.3764 8.49756 13.7648C8.49756 14.1531 8.18262 14.4679 7.79443 14.4679H3.59802C3.20966 14.4679 2.8949 14.1531 2.8949 13.7648C2.8949 13.3764 3.20966 13.0616 3.59802 13.0616ZM7.79443 15.9214H3.59802C3.20966 15.9214 2.8949 16.2363 2.8949 16.6245C2.8949 17.0129 3.20966 17.3276 3.59802 17.3276H7.79443C8.18262 17.3276 8.49756 17.0129 8.49756 16.6245C8.49756 16.2363 8.18262 15.9214 7.79443 15.9214ZM14.3522 6.02985H10.1558C9.76758 6.02985 9.45264 5.71509 9.45264 5.32672C9.45264 4.93835 9.76758 4.6236 10.1558 4.6236H14.3522C14.7405 4.6236 15.0553 4.93835 15.0553 5.32672C15.0553 5.71509 14.7405 6.02985 14.3522 6.02985ZM10.1558 8.84253H14.3522C14.7405 8.84253 15.0553 8.52777 15.0553 8.1394C15.0553 7.75104 14.7405 7.43628 14.3522 7.43628H10.1558C9.76758 7.43628 9.45264 7.75104 9.45264 8.1394C9.45264 8.52777 9.76758 8.84253 10.1558 8.84253ZM12.1769 10.249C12.5652 10.249 12.88 10.5637 12.88 10.9521C12.88 11.3405 12.5652 11.6552 12.1769 11.6552H10.1558C9.76758 11.6552 9.45264 11.3405 9.45264 10.9521C9.45264 10.5637 9.76758 10.249 10.1558 10.249H12.1769ZM19.5408 16.2182C19.238 15.9752 18.7956 16.0237 18.5524 16.3266L16.7415 18.5843L15.6204 17.772C15.306 17.544 14.8662 17.6144 14.6384 17.9288C14.4106 18.2433 14.4809 18.683 14.7953 18.9107L16.4584 20.1158C16.583 20.2059 16.7272 20.2496 16.8706 20.2496C17.077 20.2496 17.281 20.159 17.4194 19.9863L19.6494 17.2066C19.8924 16.9037 19.8439 16.4612 19.5408 16.2182Z" fill="#FF2E00"/>
</svg>
