<svg width="24" height="24" viewBox="0 0 24 24" fill="none" xmlns="http://www.w3.org/2000/svg">
<g clip-path="url(#clip0)">
<path d="M11.829 11.5609C13.4172 11.5609 14.7923 10.9913 15.9162 9.86735C17.0398 8.74364 17.6096 7.3687 17.6096 5.78026C17.6096 4.19237 17.04 2.81726 15.9161 1.69317C14.7922 0.56964 13.417 0 11.829 0C10.2405 0 8.8656 0.56964 7.74188 1.69336C6.61816 2.81707 6.04834 4.19219 6.04834 5.78026C6.04834 7.3687 6.61816 8.74382 7.74188 9.86753C8.86596 10.9911 10.2411 11.5609 11.829 11.5609ZM8.73651 2.6878C9.59875 1.82556 10.6102 1.40643 11.829 1.40643C13.0475 1.40643 14.0592 1.82556 14.9216 2.6878C15.7839 3.55023 16.2032 4.56188 16.2032 5.78026C16.2032 6.99901 15.7839 8.01048 14.9216 8.87291C14.0592 9.73533 13.0475 10.1545 11.829 10.1545C10.6106 10.1545 9.59911 9.73515 8.73651 8.87291C7.87408 8.01067 7.45477 6.99901 7.45477 5.78026C7.45477 4.56188 7.87408 3.55023 8.73651 2.6878Z" fill="#7C8DB5"/>
<path d="M21.9435 18.4556C21.9111 17.988 21.8455 17.4778 21.749 16.9391C21.6516 16.3964 21.5262 15.8834 21.3761 15.4144C21.2208 14.9297 21.01 14.4511 20.7491 13.9924C20.4787 13.5164 20.1608 13.1018 19.8041 12.7607C19.4311 12.4038 18.9745 12.1169 18.4464 11.9076C17.9201 11.6994 17.3369 11.5939 16.7131 11.5939C16.4681 11.5939 16.2312 11.6945 15.7736 11.9924C15.492 12.176 15.1626 12.3884 14.7949 12.6234C14.4805 12.8237 14.0546 13.0113 13.5285 13.1813C13.0153 13.3473 12.4942 13.4316 11.9797 13.4316C11.4655 13.4316 10.9444 13.3473 10.4308 13.1813C9.90526 13.0115 9.47917 12.8239 9.16533 12.6235C8.80113 12.3908 8.47155 12.1784 8.18572 11.9922C7.7285 11.6943 7.49157 11.5938 7.24657 11.5938C6.62255 11.5938 6.03954 11.6994 5.51348 11.9078C4.98577 12.1167 4.52893 12.4036 4.15557 12.7609C3.79889 13.1022 3.48102 13.5165 3.21075 13.9924C2.95019 14.4511 2.73926 14.9296 2.58398 15.4146C2.43402 15.8835 2.30859 16.3964 2.21118 16.9391C2.1145 17.4771 2.04913 17.9874 2.01672 18.4562C1.98486 18.9145 1.96875 19.3915 1.96875 19.8734C1.96875 21.1262 2.367 22.1404 3.15234 22.8884C3.92797 23.6265 4.9541 24.0008 6.20232 24.0008H17.7585C19.0063 24.0008 20.0324 23.6265 20.8083 22.8884C21.5938 22.141 21.992 21.1264 21.992 19.8732C21.9918 19.3896 21.9755 18.9126 21.9435 18.4556ZM19.8385 21.8694C19.326 22.3572 18.6456 22.5943 17.7583 22.5943H6.20232C5.31481 22.5943 4.63439 22.3572 4.12207 21.8696C3.61944 21.3912 3.37518 20.738 3.37518 19.8734C3.37518 19.4237 3.39001 18.9797 3.41967 18.5534C3.44861 18.1352 3.50775 17.6758 3.59546 17.1876C3.68206 16.7055 3.79229 16.253 3.9234 15.8434C4.04919 15.4507 4.22076 15.0618 4.43353 14.6871C4.63659 14.3301 4.87023 14.0237 5.12805 13.7769C5.3692 13.546 5.67315 13.3571 6.0313 13.2153C6.36254 13.0842 6.73479 13.0124 7.13891 13.0016C7.18816 13.0278 7.27587 13.0778 7.41796 13.1705C7.70708 13.3589 8.04033 13.5738 8.40874 13.8091C8.82402 14.0739 9.35906 14.313 9.99828 14.5194C10.6518 14.7307 11.3183 14.838 11.9798 14.838C12.6414 14.838 13.3081 14.7307 13.9612 14.5196C14.601 14.3129 15.1358 14.0739 15.5517 13.8088C15.9287 13.5678 16.2526 13.3591 16.5417 13.1705C16.6838 13.078 16.7715 13.0278 16.8208 13.0016C17.2251 13.0124 17.5973 13.0842 17.9287 13.2153C18.2867 13.3571 18.5907 13.5462 18.8318 13.7769C19.0896 14.0236 19.3233 14.3299 19.5263 14.6873C19.7393 15.0618 19.911 15.4509 20.0366 15.8433C20.1679 16.2534 20.2783 16.7057 20.3648 17.1874C20.4523 17.6765 20.5116 18.1361 20.5406 18.5536V18.5539C20.5704 18.9786 20.5854 19.4224 20.5856 19.8734C20.5854 20.7382 20.3412 21.3912 19.8385 21.8694Z" fill="#7C8DB5"/>
</g>
<defs>
<clipPath id="clip0">
<rect width="24" height="24" fill="white"/>
</clipPath>
</defs>
</svg>
