<svg width="24" height="24" viewBox="0 0 24 24" fill="none" xmlns="http://www.w3.org/2000/svg">
<path d="M18.6377 14.9382L17.7379 14.4192V15.4579V16.1411C17.7379 17.8642 16.3403 19.2618 14.6172 19.2618H3.72066C1.99756 19.2618 0.6 17.8642 0.6 16.1411V7.85933C0.6 6.13623 1.99756 4.73867 3.72066 4.73867H14.6222C16.3453 4.73867 17.7428 6.13623 17.7428 7.85933V8.54252V9.58129L18.6426 9.06225L22.8007 6.66373L22.8007 6.66376L22.8068 6.66017C23.063 6.50834 23.4 6.69372 23.4 7.00412V16.9865C23.4 17.2951 23.0647 17.4908 22.7947 17.3361C22.7947 17.3361 22.7946 17.336 22.7945 17.336L18.6377 14.9382Z" stroke="#7C8DB5" stroke-width="1.2"/>
</svg>
