<svg width="20" height="24" viewBox="0 0 20 24" fill="none" xmlns="http://www.w3.org/2000/svg">
<path fill-rule="evenodd" clip-rule="evenodd" d="M10.321 0.103698L19.4956 4.62746C19.8061 4.78056 20.0001 5.07957 20 5.40507V11.6914C20 16.7915 16.7079 21.3756 11.6127 23.3708L10.2187 23.9277C10.0984 23.9759 9.96984 24 9.84127 24C9.71174 24 9.5819 23.9756 9.46063 23.9266L8.22255 23.4271C3.22701 21.4006 0 16.8406 0 11.8092V5.40535C0 5.08337 0.189562 4.78731 0.494624 4.63248L9.41529 0.108714C9.6972 -0.0343486 10.0372 -0.0364111 10.321 0.103698ZM10.8673 21.7486C15.2584 20.0308 18.0953 16.0833 18.0953 11.6914H18.0952V5.93415L9.87967 1.88326L1.90474 5.92707V11.8089C1.90474 16.1406 4.68414 20.0669 8.98571 21.8118L9.8432 22.1578L10.8607 21.7513L10.8673 21.7486ZM13.5893 9.51019C13.9973 9.20293 14.5976 9.26021 14.9293 9.63769C15.2614 10.0152 15.1998 10.5704 14.7915 10.8773L9.1721 15.1071C8.99591 15.2401 8.78325 15.3048 8.5718 15.3048C8.3026 15.3048 8.03528 15.1999 7.84704 14.9957L5.43435 12.3816C5.09276 12.0115 5.14008 11.4551 5.54007 11.1393C5.93976 10.8233 6.54133 10.867 6.88261 11.2372L8.6915 13.1971L13.5893 9.51019Z" fill="#FF2E00"/>
</svg>
