<svg width="24" height="24" viewBox="0 0 24 24" fill="none" xmlns="http://www.w3.org/2000/svg">
<path fill-rule="evenodd" clip-rule="evenodd" d="M21.201 0.491531L23.5087 8.10694C23.5284 8.17205 23.5385 8.23964 23.5385 8.3077C23.5385 9.63319 22.7892 10.7865 21.6923 11.3679V23.3077C21.6923 23.69 21.3824 24 21 24H2.53847C2.15616 24 1.84617 23.6901 1.84617 23.3077V11.3679C0.74925 10.7865 0 9.63319 0 8.3077C0 8.23969 0.0100313 8.17205 0.0297656 8.10694L2.33747 0.491531C2.42587 0.199594 2.69498 0 3 0H20.5385C20.8435 0 21.1126 0.199594 21.201 0.491531ZM6 22.6154H10.1538V17.3077H6V22.6154ZM11.5385 22.6154H20.3077V11.7615C20.3014 11.762 20.295 11.7622 20.2887 11.7625C20.2836 11.7627 20.2785 11.7629 20.2734 11.7632L20.2345 11.7652C20.1821 11.7676 20.1296 11.7692 20.0769 11.7692C19.6174 11.7692 19.1785 11.6792 18.777 11.5159C18.1901 11.2772 17.683 10.882 17.3077 10.3824C16.9324 10.882 16.4253 11.2772 15.8384 11.5159C15.4369 11.6792 14.998 11.7692 14.5385 11.7692C14.079 11.7692 13.6401 11.6792 13.2385 11.5159C12.6517 11.2772 12.1445 10.882 11.7692 10.3824C11.394 10.882 10.8868 11.2772 10.2999 11.5159C9.89841 11.6792 9.45951 11.7692 9 11.7692C8.54048 11.7692 8.10159 11.6792 7.70006 11.5159C7.11319 11.2772 6.60605 10.882 6.23076 10.3824C5.85548 10.882 5.34834 11.2772 4.76147 11.5159C4.35994 11.6792 3.92105 11.7692 3.46153 11.7692C3.40889 11.7692 3.35644 11.7675 3.30398 11.7652C3.29095 11.7646 3.27802 11.764 3.26503 11.7632C3.25359 11.7626 3.24216 11.7623 3.23077 11.7615V22.6154H4.61541V16.6154C4.61541 16.2331 4.92534 15.9231 5.3077 15.9231H10.8462C11.2285 15.9231 11.5385 16.233 11.5385 16.6154V22.6154ZM20.6615 10.3005C20.6683 10.2986 20.6751 10.2967 20.6819 10.2946C21.5038 10.044 22.1111 9.29616 22.1517 8.40314L20.0249 1.38459H3.51361L1.38675 8.40309C1.42734 9.29606 2.03461 10.0439 2.85656 10.2946C2.8633 10.2967 2.8701 10.2985 2.8769 10.3004C2.88109 10.3016 2.88526 10.3027 2.88942 10.3039L2.8906 10.3043C2.90929 10.3096 2.92793 10.315 2.94684 10.3198C2.95678 10.3224 2.96674 10.3247 2.97671 10.327C2.97996 10.3277 2.98321 10.3285 2.98645 10.3292C3.00403 10.3334 3.02156 10.3374 3.03928 10.3411C3.05283 10.3439 3.06642 10.3464 3.08002 10.349C3.09783 10.3523 3.11569 10.3554 3.13364 10.3583C3.14709 10.3605 3.16059 10.3625 3.17405 10.3643C3.19284 10.367 3.21164 10.3693 3.23058 10.3714C3.24338 10.3728 3.25608 10.3742 3.26892 10.3755C3.28997 10.3774 3.31111 10.3788 3.33234 10.3801C3.33647 10.3804 3.3406 10.3807 3.34473 10.381C3.35139 10.3814 3.35805 10.3819 3.36473 10.3822C3.39689 10.3837 3.42909 10.3846 3.46153 10.3846C4.60678 10.3846 5.53847 9.45286 5.53847 8.30766C5.53847 7.92534 5.84845 7.61536 6.23076 7.61536C6.61308 7.61536 6.92306 7.9253 6.92306 8.30766C6.92306 9.45291 7.85475 10.3846 9 10.3846C10.1452 10.3846 11.0769 9.45286 11.0769 8.30766C11.0769 7.92534 11.3869 7.61536 11.7692 7.61536C12.1515 7.61536 12.4615 7.9253 12.4615 8.30766C12.4615 9.45291 13.3933 10.3846 14.5385 10.3846C15.6837 10.3846 16.6154 9.45286 16.6154 8.30766C16.6154 7.92534 16.9254 7.61536 17.3077 7.61536C17.69 7.61536 18 7.9253 18 8.30766C18 9.45291 18.9317 10.3846 20.0769 10.3846C20.1094 10.3846 20.1416 10.3837 20.1737 10.3822C20.1804 10.382 20.1872 10.3815 20.194 10.381C20.198 10.3807 20.202 10.3804 20.2061 10.3802C20.2273 10.3789 20.2485 10.3774 20.2695 10.3755C20.2819 10.3744 20.2943 10.373 20.3067 10.3716L20.3078 10.3714C20.3268 10.3693 20.3456 10.367 20.3644 10.3644C20.3779 10.3625 20.3913 10.3605 20.4048 10.3583C20.4227 10.3555 20.4406 10.3523 20.4584 10.349C20.472 10.3465 20.4856 10.344 20.4991 10.3411C20.5169 10.3375 20.5344 10.3334 20.552 10.3293C20.5652 10.3262 20.5784 10.3232 20.5916 10.3199C20.6109 10.3149 20.6299 10.3095 20.649 10.304C20.6532 10.3028 20.6573 10.3016 20.6615 10.3005ZM13.6154 13.1538H18.2308C18.6131 13.1538 18.9231 13.4638 18.9231 13.8461V17.5384C18.9231 17.9207 18.6131 18.2307 18.2308 18.2307H13.6154C13.2331 18.2307 12.9231 17.9208 12.9231 17.5384V13.8461C12.9231 13.4638 13.2331 13.1538 13.6154 13.1538ZM14.3077 16.8462H17.5385V14.5385H14.3077V16.8462Z" fill="#FF2E00"/>
</svg>
