<svg width="16" height="18" viewBox="0 0 16 18" fill="none" xmlns="http://www.w3.org/2000/svg">
<path d="M8.09771 8.67062C9.32151 8.67062 10.3812 8.24339 11.2471 7.40047C12.1129 6.55769 12.5519 5.52649 12.5519 4.33517C12.5519 3.14426 12.1129 2.11293 11.2469 1.26987C10.3809 0.427228 9.32137 0 8.09771 0C6.87377 0 5.81434 0.427228 4.94848 1.27001C4.08262 2.11279 3.64355 3.14413 3.64355 4.33517C3.64355 5.52649 4.08262 6.55783 4.94862 7.40061C5.81462 8.24325 6.8742 8.67062 8.09771 8.67062Z" fill="#7B8794"/>
<path d="M15.8912 13.8417C15.8662 13.4909 15.8157 13.1083 15.7413 12.7043C15.6663 12.2973 15.5696 11.9125 15.4539 11.5608C15.3344 11.1973 15.1719 10.8383 14.971 10.4943C14.7625 10.1373 14.5175 9.82635 14.2427 9.5705C13.9553 9.30285 13.6034 9.08766 13.1965 8.93069C12.791 8.77455 12.3417 8.69545 11.861 8.69545C11.6722 8.69545 11.4897 8.77084 11.1371 8.99428C10.9201 9.13202 10.6663 9.29132 10.383 9.46751C10.1407 9.61774 9.81253 9.75851 9.40719 9.88595C9.01172 10.0105 8.61018 10.0737 8.21386 10.0737C7.81755 10.0737 7.41615 10.0105 7.02026 9.88595C6.61533 9.75864 6.28716 9.61788 6.04519 9.46765C5.76457 9.2931 5.51061 9.1338 5.29037 8.99414C4.93822 8.77071 4.75551 8.69531 4.56673 8.69531C4.0859 8.69531 3.63668 8.77455 3.23133 8.93083C2.82471 9.08752 2.4727 9.30271 2.18502 9.57064C1.91032 9.82662 1.66525 10.1374 1.457 10.4943C1.25623 10.8383 1.0937 11.1972 0.974057 11.5609C0.858505 11.9126 0.76186 12.2973 0.686801 12.7043C0.612447 13.1078 0.561938 13.4905 0.536965 13.8421C0.512416 14.1865 0.5 14.544 0.5 14.905C0.5 15.8446 0.806867 16.6053 1.41199 17.1663C2.00964 17.7198 2.80044 18.0007 3.7621 18.0007H12.6665C13.6281 18.0007 14.4186 17.72 15.0164 17.1663C15.6217 16.6057 15.9286 15.8449 15.9286 14.9049C15.9284 14.5422 15.9159 14.1845 15.8912 13.8417Z" fill="#7B8794"/>
</svg>
