<svg width="40" height="40" viewBox="0 0 40 40" fill="none" xmlns="http://www.w3.org/2000/svg">
<circle cx="20" cy="20" r="19.5" stroke="#CBD2D9"/>
<path d="M25 17.2L30.213 13.55C30.288 13.4975 30.3759 13.4665 30.4672 13.4605C30.5586 13.4545 30.6498 13.4737 30.731 13.516C30.8122 13.5583 30.8802 13.6221 30.9276 13.7004C30.9751 13.7786 31.0001 13.8685 31 13.96V26.04C31.0001 26.1315 30.9751 26.2214 30.9276 26.2996C30.8802 26.3779 30.8122 26.4417 30.731 26.484C30.6498 26.5263 30.5586 26.5455 30.4672 26.5395C30.3759 26.5335 30.288 26.5025 30.213 26.45L25 22.8V27C25 27.2652 24.8946 27.5196 24.7071 27.7071C24.5196 27.8946 24.2652 28 24 28H10C9.73478 28 9.48043 27.8946 9.29289 27.7071C9.10536 27.5196 9 27.2652 9 27V13C9 12.7348 9.10536 12.4804 9.29289 12.2929C9.48043 12.1054 9.73478 12 10 12H24C24.2652 12 24.5196 12.1054 24.7071 12.2929C24.8946 12.4804 25 12.7348 25 13V17.2ZM13 16V18H15V16H13Z" fill="#CBD2D9"/>
</svg>
