<svg width="51" height="30" viewBox="0 0 51 30" fill="none" xmlns="http://www.w3.org/2000/svg">
<mask id="path-1-inside-1" fill="white">
<path fill-rule="evenodd" clip-rule="evenodd" d="M5.54981 0H28.6925C31.7449 0 34.2423 2.44314 34.2423 5.55258V24.2648C34.2423 27.3187 31.7449 29.8174 28.6925 29.8174H5.54981C2.49741 29.8174 0 27.3187 0 24.2648V5.55258C0 2.49866 2.49741 0 5.54981 0ZM45.6743 3.44205C45.9518 3.27547 46.2848 3.10889 46.6178 3.05336C48.7822 2.55363 50.7246 4.21941 50.7246 6.27387V23.4314C50.7246 24.0421 50.5581 24.5974 50.2807 25.0971C49.3372 26.7074 47.3393 27.2626 45.7298 26.3187L37.0166 21.3214V8.43937L45.6743 3.44205Z"/>
</mask>
<path fill-rule="evenodd" clip-rule="evenodd" d="M5.54981 0H28.6925C31.7449 0 34.2423 2.44314 34.2423 5.55258V24.2648C34.2423 27.3187 31.7449 29.8174 28.6925 29.8174H5.54981C2.49741 29.8174 0 27.3187 0 24.2648V5.55258C0 2.49866 2.49741 0 5.54981 0ZM45.6743 3.44205C45.9518 3.27547 46.2848 3.10889 46.6178 3.05336C48.7822 2.55363 50.7246 4.21941 50.7246 6.27387V23.4314C50.7246 24.0421 50.5581 24.5974 50.2807 25.0971C49.3372 26.7074 47.3393 27.2626 45.7298 26.3187L37.0166 21.3214V8.43937L45.6743 3.44205Z" fill="#E4E7EB"/>
<path d="M46.6178 3.05336L46.8645 4.53294L46.9101 4.52532L46.9552 4.51491L46.6178 3.05336ZM45.6743 3.44205L46.4242 4.74116L46.4353 4.73473L46.4463 4.72812L45.6743 3.44205ZM50.2807 25.0971L51.5749 25.8554L51.5836 25.8405L51.5921 25.8253L50.2807 25.0971ZM45.7298 26.3187L46.4887 25.0248L46.4824 25.0211L46.4761 25.0175L45.7298 26.3187ZM37.0166 21.3214H35.5166V22.1903L36.2703 22.6226L37.0166 21.3214ZM37.0166 8.43937L36.2668 7.14026L35.5166 7.57325V8.43937H37.0166ZM28.6925 -1.5H5.54981V1.5H28.6925V-1.5ZM35.7423 5.55258C35.7423 1.60564 32.5642 -1.5 28.6925 -1.5V1.5C30.9256 1.5 32.7423 3.28063 32.7423 5.55258H35.7423ZM35.7423 24.2648V5.55258H32.7423V24.2648H35.7423ZM28.6925 31.3174C32.574 31.3174 35.7423 28.1464 35.7423 24.2648H32.7423C32.7423 26.491 30.9158 28.3174 28.6925 28.3174V31.3174ZM5.54981 31.3174H28.6925V28.3174H5.54981V31.3174ZM-1.5 24.2648C-1.5 28.1464 1.66828 31.3174 5.54981 31.3174V28.3174C3.32655 28.3174 1.5 26.491 1.5 24.2648H-1.5ZM-1.5 5.55258V24.2648H1.5V5.55258H-1.5ZM5.54981 -1.5C1.66828 -1.5 -1.5 1.67094 -1.5 5.55258H1.5C1.5 3.32638 3.32655 1.5 5.54981 1.5V-1.5ZM46.3711 1.57379C45.7546 1.67658 45.226 1.96167 44.9023 2.15597L46.4463 4.72812C46.5499 4.66595 46.6425 4.61684 46.7236 4.58156C46.8069 4.54533 46.8526 4.53492 46.8645 4.53294L46.3711 1.57379ZM52.2246 6.27387C52.2246 3.27888 49.4081 0.869652 46.2803 1.59181L46.9552 4.51491C48.1563 4.23761 49.2246 5.15993 49.2246 6.27387H52.2246ZM52.2246 23.4314V6.27387H49.2246V23.4314H52.2246ZM51.5921 25.8253C51.978 25.1303 52.2246 24.3266 52.2246 23.4314H49.2246C49.2246 23.7576 49.1383 24.0645 48.9693 24.369L51.5921 25.8253ZM44.971 27.6126C47.3189 28.9897 50.2265 28.1567 51.5749 25.8554L48.9864 24.3388C48.4479 25.258 47.3596 25.5356 46.4887 25.0248L44.971 27.6126ZM36.2703 22.6226L44.9835 27.6199L46.4761 25.0175L37.7629 20.0202L36.2703 22.6226ZM35.5166 8.43937V21.3214H38.5166V8.43937H35.5166ZM44.9244 2.14293L36.2668 7.14026L37.7665 9.73849L46.4242 4.74116L44.9244 2.14293Z" fill="#9AA5B1" mask="url(#path-1-inside-1)"/>
</svg>
