<svg width="32" height="32" viewBox="0 0 32 32" fill="none" xmlns="http://www.w3.org/2000/svg">
<circle cx="16" cy="16" r="16" fill="#FF2E00" fill-opacity="0.2"/>
<path d="M19.6923 13.6925H24V11.6925C24 10.42 22.9648 9.38477 21.6923 9.38477H10.3077C9.03522 9.38477 8 10.42 8 11.6925V20.3078C8 21.5803 9.03522 22.6155 10.3077 22.6155H21.6923C22.9648 22.6155 24 21.5803 24 20.3078V18.3078H19.6923C18.4198 18.3078 17.3846 17.2726 17.3846 16.0001C17.3846 14.7277 18.4198 13.6925 19.6923 13.6925Z" fill="#FF2E00"/>
<path d="M19.6922 14.6152C18.9287 14.6152 18.3076 15.2364 18.3076 15.9999C18.3076 16.7634 18.9287 17.3845 19.6922 17.3845H23.9999V14.6153H19.6922V14.6152ZM20.3076 16.4614H19.6922C19.4373 16.4614 19.2306 16.2547 19.2306 15.9999C19.2306 15.745 19.4373 15.5383 19.6922 15.5383H20.3076C20.5625 15.5383 20.7691 15.745 20.7691 15.9999C20.7691 16.2547 20.5625 16.4614 20.3076 16.4614Z" fill="#FF2E00" fill-opacity="0.8"/>
</svg>
