<svg width="16" height="16" viewBox="0 0 16 16" fill="none" xmlns="http://www.w3.org/2000/svg">
<path d="M11.6923 5.69245H16V3.69245C16 2.41998 14.9648 1.38477 13.6923 1.38477H2.30769C1.03522 1.38477 0 2.41998 0 3.69245V12.3078C0 13.5803 1.03522 14.6155 2.30769 14.6155H13.6923C14.9648 14.6155 16 13.5803 16 12.3078V10.3078H11.6923C10.4198 10.3078 9.38463 9.27261 9.38463 8.00014C9.38463 6.72767 10.4198 5.69245 11.6923 5.69245Z" fill="#FF2E00"/>
<path d="M11.6922 6.61523C10.9288 6.61523 10.3076 7.23636 10.3076 7.99986C10.3076 8.76335 10.9287 9.38448 11.6922 9.38448H15.9999V6.61527H11.6922V6.61523ZM12.3076 8.46139H11.6922C11.4373 8.46139 11.2307 8.25473 11.2307 7.99986C11.2307 7.74498 11.4374 7.53833 11.6922 7.53833H12.3076C12.5625 7.53833 12.7691 7.74498 12.7691 7.99986C12.7691 8.25473 12.5625 8.46139 12.3076 8.46139Z" fill="#FF2E00" fill-opacity="0.8"/>
</svg>
