<svg width="16" height="16" viewBox="0 0 16 16" fill="none" xmlns="http://www.w3.org/2000/svg">
<path d="M13.7656 5.02053C13.6615 4.99967 13.5833 4.98925 13.5312 4.98925C13.1458 4.98925 12.8125 5.11958 12.5312 5.38025C11.8958 5.09873 11.3021 4.86934 10.75 4.69208C9.84375 4.40013 8.89583 4.16031 7.90625 3.97263C7.8125 3.72239 7.67188 3.51385 7.48438 3.34702C7.74479 2.11665 8.09375 1.00098 8.53125 0C9.84375 0.0938416 11.0495 0.474422 12.1484 1.14174C13.2474 1.80906 14.1354 2.68491 14.8125 3.76931C14.4271 4.18638 14.0781 4.60345 13.7656 5.02053ZM6.51562 2.98729C6.24479 2.98729 5.98958 3.06028 5.75 3.20626C4.90625 2.58065 4.05729 2.04888 3.20312 1.61095C4.49479 0.630824 5.94271 0.0938416 7.54688 0C7.14062 0.907136 6.8125 1.9029 6.5625 2.98729H6.51562ZM1.09375 3.95699C1.44792 3.36266 1.89583 2.79961 2.4375 2.26784C3.14583 2.63278 3.88021 3.08113 4.64062 3.6129C3.29688 3.58162 2.11458 3.69632 1.09375 3.95699ZM5.01562 4.5826C5.03646 4.90583 5.14844 5.18996 5.35156 5.435C5.55469 5.68003 5.80729 5.84425 6.10938 5.92766C6.04688 6.65754 6.01562 7.35093 6.01562 8.00782C6.01562 8.4666 6.03125 8.99316 6.0625 9.58749C5.83333 9.66048 5.63021 9.7856 5.45312 9.96285C4.89062 9.74389 4.34896 9.49365 3.82812 9.21212C3.94271 8.98273 4 8.74813 4 8.50831C4 8.09123 3.85417 7.73672 3.5625 7.44477C3.27083 7.15282 2.91667 7.00684 2.5 7.00684C2.04167 7.00684 1.66146 7.1841 1.35938 7.53861C0.921875 7.14239 0.53125 6.73053 0.1875 6.30303C0.28125 5.85468 0.421875 5.41153 0.609375 4.97361C1.88021 4.61909 3.34896 4.48876 5.01562 4.5826ZM1.01562 8.63343C1.04688 9.01923 1.20573 9.34506 1.49219 9.61095C1.77865 9.87683 2.11458 10.0098 2.5 10.0098C2.61458 10.0098 2.73958 9.98892 2.875 9.94721C3.54167 10.333 4.25521 10.6667 5.01562 10.9482V11.0108C5.01562 11.4174 5.15365 11.7641 5.42969 12.0508C5.70573 12.3376 6.04688 12.4914 6.45312 12.5122C6.71354 13.7843 7.07812 14.9469 7.54688 16C6.50521 15.9374 5.52083 15.6846 4.59375 15.2414C3.66667 14.7983 2.86719 14.2222 2.19531 13.5132C1.52344 12.8042 0.989583 11.97 0.59375 11.0108C0.197917 10.0515 0 9.0505 0 8.00782C0 7.99739 0.00520833 7.85663 0.015625 7.58553C0.307292 7.95047 0.640625 8.29977 1.01562 8.63343ZM7.82812 11.7146C8.57812 11.8501 9.33333 11.9387 10.0938 11.9804C10.1667 12.189 10.2812 12.3819 10.4375 12.5591C10.1979 13.654 10.0521 14.7175 10 15.7498C9.46875 15.8853 8.97917 15.9687 8.53125 16C8.04167 14.8843 7.66146 13.6227 7.39062 12.2151C7.57812 12.0899 7.72396 11.9231 7.82812 11.7146ZM12.6719 12.4653C12.8073 12.2985 12.901 12.1212 12.9531 11.9335C13.7135 11.871 14.4479 11.7719 15.1562 11.6364C14.6562 12.6165 13.9688 13.4663 13.0938 14.1857C13 13.6435 12.8594 13.0701 12.6719 12.4653ZM10.125 10.9795C9.39583 10.9378 8.67708 10.8439 7.96875 10.6979C7.85417 10.1766 7.55729 9.81688 7.07812 9.61877C7.03646 9.00358 7.01562 8.4666 7.01562 8.00782C7.01562 7.31965 7.04688 6.60541 7.10938 5.8651C7.13021 5.8651 7.15625 5.85468 7.1875 5.83382C7.21875 5.81297 7.23958 5.80254 7.25 5.80254C7.65625 6.19876 8.01042 6.5637 8.3125 6.89736C9.21875 7.89834 9.98958 9.03486 10.625 10.3069C10.3958 10.4842 10.2292 10.7084 10.125 10.9795ZM11.5156 13.0127C11.5365 13.0127 11.5938 13.0075 11.6875 12.9971C11.8646 13.6331 11.9948 14.2639 12.0781 14.8895C11.776 15.0668 11.4115 15.2441 10.9844 15.4213C11.0573 14.608 11.1823 13.7999 11.3594 12.9971C11.4427 13.0075 11.4948 13.0127 11.5156 13.0127ZM11.4375 9.27468C11.4271 9.29554 11.4141 9.32682 11.3984 9.36852C11.3828 9.41023 11.3698 9.44151 11.3594 9.46237C10.7031 8.2737 9.93229 7.19453 9.04688 6.22483C8.72396 5.85989 8.33854 5.46367 7.89062 5.03617C7.90104 5.03617 7.90885 5.02835 7.91406 5.01271L7.92188 4.98925C8.79688 5.1665 9.63542 5.38547 10.4375 5.64614C10.9271 5.80254 11.4635 6.01108 12.0469 6.27175C12.026 6.37602 12.0156 6.45422 12.0156 6.50635C12.0156 6.81916 12.1094 7.1059 12.2969 7.36657C11.9531 8.02346 11.6667 8.6595 11.4375 9.27468ZM12.1719 10.1818C12.2969 9.81688 12.3594 9.6292 12.3594 9.61877C12.5677 9.09743 12.8281 8.53959 13.1406 7.94526C13.276 7.98697 13.4062 8.00782 13.5312 8.00782C13.8854 8.00782 14.2031 7.88791 14.4844 7.64809C14.9948 8.00261 15.4948 8.39883 15.9844 8.83675C15.9219 9.43109 15.7969 10.0046 15.6094 10.5572C14.7552 10.7344 13.8542 10.8596 12.9062 10.9326C12.7708 10.5989 12.526 10.3486 12.1719 10.1818ZM15.0312 6.49071C15.0312 6.14663 14.9167 5.83382 14.6875 5.5523C14.9062 5.27077 15.125 5.01531 15.3438 4.78592C15.7188 5.64093 15.9375 6.52199 16 7.42913C15.6562 7.16846 15.3229 6.93385 15 6.72532C15.0208 6.63148 15.0312 6.55327 15.0312 6.49071Z" fill="#7B8794"/>
</svg>
