<svg width="42" height="42" viewBox="0 0 42 42" fill="none" xmlns="http://www.w3.org/2000/svg">
<circle cx="21" cy="21" r="21" fill="#65D072"/>
<path fill-rule="evenodd" clip-rule="evenodd" d="M29.0023 12.9673C26.7623 10.802 23.8149 9.57886 20.676 9.57886C11.6668 9.57886 6.00986 19.3396 10.5085 27.1039L8.84229 33.1578L15.0661 31.5348C17.3404 32.7634 19.2698 32.8703 20.2358 32.9238C20.4216 32.9341 20.5717 32.9425 20.6819 32.9564C31.1283 32.9564 36.3285 20.3181 28.9875 13.0057L29.0023 12.9673ZM20.6972 30.948L20.6913 30.9471H20.6756C17.9209 30.9471 16.0427 29.7975 15.5008 29.4658C15.4277 29.421 15.3789 29.3912 15.3556 29.381L11.6714 30.3389L12.6587 26.7579L12.4239 26.3894C11.4513 24.8411 10.9345 23.0579 10.9345 21.2217C10.9345 12.583 21.491 8.26313 27.5999 14.3691C33.6941 20.4112 29.4155 30.948 20.6972 30.948ZM26.0334 23.7086L26.0422 23.6349C26.0738 23.6491 26.1042 23.6626 26.1334 23.6756C26.3768 23.784 26.5373 23.8554 26.6022 23.9738C26.6759 24.1065 26.6759 24.6812 26.4254 25.3738C26.1807 26.0665 25.0087 26.6854 24.4447 26.7748C23.9388 26.8475 23.2992 26.879 22.5977 26.656C20.0001 25.7639 18.5795 25.1214 15.9131 21.6317C14.5563 19.7198 14.1565 17.9219 15.7421 16.179C16.1066 15.7998 16.5202 15.792 17.0861 15.8411C17.104 15.8411 17.1224 15.8404 17.1414 15.8397C17.3155 15.833 17.5337 15.8247 17.7464 16.3421C17.854 16.5946 18.0273 17.014 18.1941 17.4178C18.4077 17.935 18.6108 18.4267 18.6522 18.5094C18.7249 18.6558 18.775 18.8179 18.6767 19.0242C18.4456 19.4616 18.205 19.7271 18.0254 19.9252C17.779 20.1971 17.6476 20.342 17.8141 20.6296C17.9871 20.9243 18.5726 21.8822 19.445 22.6632C20.3824 23.502 21.198 23.8555 21.6118 24.0349C21.6924 24.0698 21.7578 24.0982 21.8059 24.1222C22.0977 24.2548 22.2686 24.2401 22.4405 24.0485C22.7751 23.6654 22.9986 23.3774 23.1619 23.1669C23.5632 22.65 23.6011 22.601 24.0292 22.7595C24.2974 22.8568 25.7376 23.5612 26.0334 23.7086Z" fill="white"/>
</svg>
