<svg width="24" height="24" viewBox="0 0 24 24" fill="none" xmlns="http://www.w3.org/2000/svg">
<path fill-rule="evenodd" clip-rule="evenodd" d="M23.1323 0.867737C22.5729 0.308167 21.8289 0 21.0375 0H2.96246C2.17108 0 1.42712 0.308167 0.867737 0.867737C0.308167 1.42712 0 2.17108 0 2.96246V5.9751C0 6.7663 0.308167 7.51025 0.867737 8.06982C1.42731 8.62939 2.17126 8.93756 2.96246 8.93756H4.51868V21.7906C4.51868 22.3808 4.74847 22.9356 5.16577 23.3529C5.58307 23.7702 6.13788 24 6.72803 24H17.272C17.8621 24 18.4169 23.7702 18.8342 23.3529C19.2513 22.9356 19.4813 22.3808 19.4813 21.7906V8.93738H21.0375C21.8289 8.93738 22.5729 8.62939 23.1323 8.06982C23.6918 7.51025 24 6.7663 24 5.9751V2.96246C24 2.17108 23.6918 1.42712 23.1323 0.867737ZM18.0751 21.7906C18.0751 22.0052 17.9914 22.2068 17.8398 22.3585C17.6882 22.5103 17.4864 22.5938 17.272 22.5938H6.72803C6.51361 22.5938 6.31183 22.5103 6.16022 22.3585C6.00861 22.2068 5.92493 22.0051 5.92493 21.7906V5.17181H18.0751V21.7906ZM22.5938 5.9751C22.5938 6.39075 22.4319 6.78149 22.1378 7.07538C21.8439 7.36945 21.4532 7.53131 21.0375 7.53131H19.4811V5.172H20.2844C20.6726 5.172 20.9875 4.85706 20.9875 4.46887C20.9875 4.08051 20.6726 3.76575 20.2844 3.76575H3.71558C3.32739 3.76575 3.01245 4.08051 3.01245 4.46887C3.01245 4.85706 3.32739 5.172 3.71558 5.172H4.51868V7.53131H2.96246C2.54681 7.53131 2.15607 7.36945 1.862 7.07538C1.56812 6.78149 1.40625 6.39075 1.40625 5.9751V2.96246C1.40625 2.54681 1.56812 2.15607 1.86218 1.862C2.15607 1.56812 2.54681 1.40625 2.96246 1.40625H21.0375C21.4532 1.40625 21.8439 1.56812 22.138 1.86218C22.4319 2.15607 22.5938 2.54681 22.5938 2.96246V5.9751ZM12 6.7782C9.53595 6.7782 7.53131 8.78284 7.53131 11.2469C7.53131 13.7109 9.53595 15.7156 12 15.7156C14.4641 15.7156 16.4687 13.7109 16.4687 11.2469C16.4687 8.78284 14.4641 6.7782 12 6.7782ZM12 14.3093C10.3114 14.3093 8.93756 12.9355 8.93756 11.2469C8.93756 9.55829 10.3114 8.18445 12 8.18445C13.6886 8.18445 15.0624 9.55811 15.0624 11.2469C15.0624 12.9355 13.6886 14.3093 12 14.3093ZM7.53131 19.5313C7.53131 19.1429 7.84607 18.8282 8.23444 18.8282H15.7656C16.1539 18.8282 16.4687 19.1429 16.4687 19.5313C16.4687 19.9195 16.1539 20.2344 15.7656 20.2344H8.23444C7.84607 20.2344 7.53131 19.9195 7.53131 19.5313Z" fill="#FF2E00"/>
</svg>
