<svg width="35" height="32" viewBox="0 0 35 32" fill="none" xmlns="http://www.w3.org/2000/svg">
<rect x="0.5" width="34" height="32" rx="4" fill="#07004D"/>
<path d="M10 22H25V23.5H10V22ZM11.5 16H13V21.25H11.5V16ZM15.25 16H16.75V21.25H15.25V16ZM18.25 16H19.75V21.25H18.25V16ZM22 16H23.5V21.25H22V16ZM10 12.25L17.5 8.5L25 12.25V15.25H10V12.25ZM17.5 13C17.6989 13 17.8897 12.921 18.0303 12.7803C18.171 12.6397 18.25 12.4489 18.25 12.25C18.25 12.0511 18.171 11.8603 18.0303 11.7197C17.8897 11.579 17.6989 11.5 17.5 11.5C17.3011 11.5 17.1103 11.579 16.9697 11.7197C16.829 11.8603 16.75 12.0511 16.75 12.25C16.75 12.4489 16.829 12.6397 16.9697 12.7803C17.1103 12.921 17.3011 13 17.5 13Z" fill="white"/>
</svg>
