<svg width="14" height="14" viewBox="0 0 14 14" fill="none" xmlns="http://www.w3.org/2000/svg">
<path d="M14 7C14 3.13361 10.8664 0 7 0C3.13361 0 0 3.13361 0 7C0 10.4945 2.55937 13.3902 5.90625 13.9152V9.02344H4.12889V7H5.90625V5.45781C5.90625 3.7037 6.9508 2.73438 8.55038 2.73438C9.31601 2.73438 10.1172 2.87109 10.1172 2.87109V4.59375H9.23399C8.36445 4.59375 8.09375 5.1338 8.09375 5.6875V7H10.0351L9.72481 9.02344H8.09375V13.9152C11.4406 13.3902 14 10.4945 14 7Z" fill="#1877F2"/>
<path d="M9.72477 9.02344L10.0351 7H8.09371V5.6875C8.09371 5.1338 8.36441 4.59375 9.23396 4.59375H10.1172V2.87109C10.1172 2.87109 9.31597 2.73438 8.55035 2.73438C6.95076 2.73438 5.90621 3.7037 5.90621 5.45781V7H4.12886V9.02344H5.90621V13.9152C6.26304 13.9713 6.62809 14 6.99996 14C7.37184 14 7.73689 13.9713 8.09371 13.9152V9.02344H9.72477Z" fill="white"/>
</svg>
