<svg width="14" height="14" viewBox="0 0 14 14" fill="none" xmlns="http://www.w3.org/2000/svg">
<g clip-path="url(#clip0)">
<path d="M0.0079931 4.69583C0.0079931 3.03482 0.0079931 2.20431 0.336371 1.57216C0.613091 1.03945 1.04744 0.605098 1.58015 0.328377C2.2123 0 3.04281 0 4.70383 0H9.31216C10.9732 0 11.8037 0 12.4358 0.328377C12.9685 0.605098 13.4029 1.03945 13.6796 1.57216C14.008 2.20431 14.008 3.03482 14.008 4.69583V9.30417C14.008 10.9652 14.008 11.7957 13.6796 12.4278C13.4029 12.9606 12.9685 13.3949 12.4358 13.6716C11.8037 14 10.9732 14 9.31216 14H4.70383C3.04281 14 2.2123 14 1.58015 13.6716C1.04744 13.3949 0.613091 12.9606 0.336371 12.4278C0.0079931 11.7957 0.0079931 10.9652 0.0079931 9.30417V4.69583Z" fill="url(#paint0_radial)"/>
<path d="M0.0079931 4.69583C0.0079931 3.03482 0.0079931 2.20431 0.336371 1.57216C0.613091 1.03945 1.04744 0.605098 1.58015 0.328377C2.2123 0 3.04281 0 4.70383 0H9.31216C10.9732 0 11.8037 0 12.4358 0.328377C12.9685 0.605098 13.4029 1.03945 13.6796 1.57216C14.008 2.20431 14.008 3.03482 14.008 4.69583V9.30417C14.008 10.9652 14.008 11.7957 13.6796 12.4278C13.4029 12.9606 12.9685 13.3949 12.4358 13.6716C11.8037 14 10.9732 14 9.31216 14H4.70383C3.04281 14 2.2123 14 1.58015 13.6716C1.04744 13.3949 0.613091 12.9606 0.336371 12.4278C0.0079931 11.7957 0.0079931 10.9652 0.0079931 9.30417V4.69583Z" fill="url(#paint1_radial)"/>
<path d="M7.00021 1.90918C5.61765 1.90918 5.44414 1.91523 4.90112 1.93994C4.35917 1.96476 3.98924 2.05056 3.66555 2.17645C3.33073 2.30648 3.04671 2.48042 2.76375 2.7635C2.48058 3.04647 2.30664 3.3305 2.17619 3.66522C2.04998 3.98903 1.96408 4.35907 1.93968 4.90083C1.9154 5.44386 1.90903 5.61748 1.90903 7.00009C1.90903 8.38269 1.91518 8.55568 1.93979 9.09871C1.96471 9.64068 2.05051 10.0106 2.1763 10.3343C2.30643 10.6691 2.48036 10.9532 2.76343 11.2361C3.04629 11.5193 3.33031 11.6937 3.66492 11.8237C3.98882 11.9496 4.35885 12.0354 4.9007 12.0602C5.44371 12.085 5.61712 12.091 6.99958 12.091C8.38225 12.091 8.55523 12.085 9.09824 12.0602C9.64019 12.0354 10.0105 11.9496 10.3344 11.8237C10.6692 11.6937 10.9528 11.5193 11.2356 11.2361C11.5188 10.9532 11.6927 10.6691 11.8232 10.3344C11.9483 10.0106 12.0342 9.64057 12.0597 9.09882C12.0841 8.55579 12.0904 8.38269 12.0904 7.00009C12.0904 5.61748 12.0841 5.44397 12.0597 4.90094C12.0342 4.35897 11.9483 3.98903 11.8232 3.66533C11.6927 3.3305 11.5188 3.04647 11.2356 2.7635C10.9524 2.48032 10.6693 2.30638 10.3341 2.17645C10.0096 2.05056 9.63945 1.96476 9.0975 1.93994C8.55448 1.91523 8.38161 1.90918 6.99862 1.90918H7.00021ZM6.54353 2.8266C6.67907 2.82639 6.83031 2.8266 7.00021 2.8266C8.35944 2.8266 8.52054 2.83148 9.0573 2.85588C9.55365 2.87857 9.82303 2.96151 10.0025 3.03119C10.2401 3.12347 10.4094 3.23377 10.5875 3.41195C10.7657 3.59013 10.876 3.75983 10.9685 3.99741C11.0381 4.17665 11.1212 4.44604 11.1438 4.94241C11.1682 5.47907 11.1735 5.64029 11.1735 6.99892C11.1735 8.35756 11.1682 8.51877 11.1438 9.05544C11.1211 9.5518 11.0381 9.82119 10.9685 10.0004C10.8762 10.238 10.7657 10.4072 10.5875 10.5853C10.4093 10.7634 10.2402 10.8737 10.0025 10.966C9.82325 11.036 9.55365 11.1187 9.0573 11.1414C8.52065 11.1658 8.35944 11.1711 7.00021 11.1711C5.64087 11.1711 5.47977 11.1658 4.94312 11.1414C4.44677 11.1185 4.17739 11.0356 3.99783 10.9659C3.76026 10.8736 3.59057 10.7633 3.4124 10.5851C3.23422 10.407 3.12392 10.2377 3.03144 10C2.96176 9.82077 2.87872 9.55138 2.85612 9.05501C2.83173 8.51835 2.82685 8.35713 2.82685 6.99765C2.82685 5.63816 2.83173 5.4778 2.85612 4.94113C2.87882 4.44477 2.96176 4.17538 3.03144 3.99592C3.12371 3.75835 3.23422 3.58865 3.4124 3.41047C3.59057 3.23229 3.76026 3.12198 3.99783 3.0295C4.17728 2.9595 4.44677 2.87677 4.94312 2.85397C5.41274 2.83276 5.59474 2.82639 6.54353 2.82533V2.8266ZM9.71761 3.67191C9.38035 3.67191 9.10672 3.94522 9.10672 4.2826C9.10672 4.61988 9.38035 4.89351 9.71761 4.89351C10.0549 4.89351 10.3285 4.61988 10.3285 4.2826C10.3285 3.94533 10.0549 3.67169 9.71761 3.67169V3.67191ZM7.00021 4.38569C5.55645 4.38569 4.3859 5.55629 4.3859 7.00009C4.3859 8.44389 5.55645 9.61395 7.00021 9.61395C8.44397 9.61395 9.6141 8.44389 9.6141 7.00009C9.6141 5.55629 8.44386 4.38569 7.00011 4.38569H7.00021ZM7.00021 5.30312C7.93733 5.30312 8.69713 6.06283 8.69713 7.00009C8.69713 7.93724 7.93733 8.69706 7.00021 8.69706C6.06298 8.69706 5.30329 7.93724 5.30329 7.00009C5.30329 6.06283 6.06298 5.30312 7.00021 5.30312V5.30312Z" fill="white"/>
</g>
<defs>
<radialGradient id="paint0_radial" cx="0" cy="0" r="1" gradientUnits="userSpaceOnUse" gradientTransform="translate(3.72676 15.0783) rotate(-90) scale(13.875 12.9049)">
<stop stop-color="#FFDD55"/>
<stop offset="0.1" stop-color="#FFDD55"/>
<stop offset="0.5" stop-color="#FF543E"/>
<stop offset="1" stop-color="#C837AB"/>
</radialGradient>
<radialGradient id="paint1_radial" cx="0" cy="0" r="1" gradientUnits="userSpaceOnUse" gradientTransform="translate(-2.33708 1.00854) rotate(78.6806) scale(6.2022 25.5657)">
<stop stop-color="#3771C8"/>
<stop offset="0.128" stop-color="#3771C8"/>
<stop offset="1" stop-color="#6600FF" stop-opacity="0"/>
</radialGradient>
<clipPath id="clip0">
<rect width="14" height="14" fill="white"/>
</clipPath>
</defs>
</svg>
