<svg width="14" height="14" viewBox="0 0 14 14" fill="none" xmlns="http://www.w3.org/2000/svg">
<path d="M0 7C0 3.13401 3.13401 0 7 0C10.866 0 14 3.13401 14 7C14 10.866 10.866 14 7 14C3.13401 14 0 10.866 0 7Z" fill="#0077B5"/>
<path fill-rule="evenodd" clip-rule="evenodd" d="M5.05134 4.32329C5.05134 4.78094 4.70685 5.14714 4.15371 5.14714H4.14358C3.611 5.14714 3.2667 4.78094 3.2667 4.32329C3.2667 3.85595 3.62149 3.5 4.16417 3.5C4.70685 3.5 5.04104 3.85595 5.05134 4.32329ZM4.94692 5.79765V10.564H3.36057V5.79765H4.94692ZM10.6679 10.564L10.6679 7.83115C10.6679 6.36714 9.88533 5.68576 8.84144 5.68576C7.99919 5.68576 7.6221 6.14839 7.41156 6.47292V5.79781H5.82501C5.84592 6.24506 5.82501 10.5641 5.82501 10.5641H7.41156V7.90223C7.41156 7.75978 7.42185 7.61768 7.4638 7.51569C7.57845 7.23111 7.83949 6.93646 8.27776 6.93646C8.85202 6.93646 9.08158 7.37353 9.08158 8.01403V10.564H10.6679Z" fill="white"/>
</svg>
