<svg width="14" height="14" viewBox="0 0 14 14" fill="none" xmlns="http://www.w3.org/2000/svg">
<path d="M7 13.9426C10.866 13.9426 14 10.8215 14 6.97131C14 3.12116 10.866 0 7 0C3.13401 0 0 3.12116 0 6.97131C0 10.8215 3.13401 13.9426 7 13.9426Z" fill="white"/>
<path d="M7 0C3.13416 0 0 3.12131 0 6.97131C0 9.92623 1.84362 12.4508 4.44774 13.4664C4.38436 12.9156 4.33251 12.0664 4.47078 11.4639C4.59753 10.9189 5.28889 7.99836 5.28889 7.99836C5.28889 7.99836 5.08148 7.57951 5.08148 6.96557C5.08148 5.9959 5.64609 5.27295 6.34897 5.27295C6.94815 5.27295 7.23621 5.72049 7.23621 6.2541C7.23621 6.85082 6.85597 7.7459 6.65432 8.57787C6.48724 9.27213 7.00576 9.84016 7.69136 9.84016C8.9358 9.84016 9.89218 8.53197 9.89218 6.65C9.89218 4.98033 8.68807 3.81557 6.96543 3.81557C4.97202 3.81557 3.80247 5.30164 3.80247 6.83934C3.80247 7.43607 4.03292 8.07869 4.32099 8.42869C4.3786 8.49754 4.38436 8.56066 4.36708 8.62951C4.31523 8.84754 4.19424 9.32377 4.17119 9.42131C4.14239 9.54754 4.06749 9.57623 3.93498 9.51311C3.05926 9.10574 2.51193 7.8377 2.51193 6.81066C2.51193 4.61311 4.11358 2.59344 7.13827 2.59344C9.56379 2.59344 11.4535 4.31475 11.4535 6.62131C11.4535 9.02541 9.93251 10.959 7.82387 10.959C7.11523 10.959 6.44691 10.5918 6.22222 10.1557C6.22222 10.1557 5.87078 11.4869 5.78436 11.8139C5.62881 12.4221 5.20247 13.1795 4.9144 13.6443C5.57119 13.8451 6.26255 13.9541 6.98848 13.9541C10.8543 13.9541 13.9885 10.8328 13.9885 6.98279C14 3.12131 10.8658 0 7 0Z" fill="#E60019"/>
</svg>
