<svg width="14" height="14" viewBox="0 0 14 14" fill="none" xmlns="http://www.w3.org/2000/svg">
<path fill-rule="evenodd" clip-rule="evenodd" d="M5.69205 5.51254V4.96648C5.50252 4.93965 5.31142 4.92571 5.12 4.9248C2.77931 4.9248 0.875 6.82945 0.875 9.17016C0.875 10.606 1.5926 11.877 2.68729 12.6456C1.9543 11.8617 1.5468 10.8285 1.54739 9.75533C1.54739 7.44796 3.39751 5.56641 5.69205 5.51254Z" fill="#00F2EA"/>
<path fill-rule="evenodd" clip-rule="evenodd" d="M5.79209 11.6939C6.83643 11.6939 7.68839 10.8631 7.72718 9.82777L7.73071 0.585177H9.41923C9.38318 0.392198 9.36495 0.196316 9.36472 0H7.05865L7.0548 9.24292C7.01633 10.278 6.16405 11.1084 5.12003 11.1084C4.80658 11.1085 4.49785 11.0322 4.22062 10.8859C4.39962 11.1356 4.63552 11.3392 4.90878 11.4797C5.18204 11.6202 5.48482 11.6936 5.79209 11.6939ZM12.5735 3.72241V3.20873C11.9529 3.20931 11.3457 3.0288 10.8263 2.68929C11.2817 3.21366 11.8949 3.57614 12.5738 3.72241" fill="#00F2EA"/>
<path fill-rule="evenodd" clip-rule="evenodd" d="M10.826 2.68888C10.317 2.10642 10.0366 1.35901 10.0369 0.585449H9.41905C9.49905 1.01302 9.66498 1.41989 9.90683 1.78145C10.1487 2.143 10.4614 2.45171 10.826 2.68888ZM5.11987 7.23119C4.60589 7.2318 4.11315 7.43623 3.74971 7.79968C3.38629 8.1631 3.18186 8.65584 3.18125 9.16981C3.1816 9.52337 3.27855 9.87013 3.46166 10.1726C3.64476 10.475 3.90703 10.7217 4.22013 10.8859C3.98173 10.5572 3.85336 10.1614 3.85334 9.75533C3.85383 9.2413 4.05823 8.74847 4.42168 8.38497C4.78512 8.02146 5.27792 7.81697 5.79196 7.81639C5.99172 7.81639 6.18314 7.84941 6.36397 7.90617V5.55166C6.17448 5.52482 5.98335 5.51088 5.79196 5.50998C5.75827 5.50998 5.72525 5.5119 5.69191 5.51255V7.321C5.50691 7.26211 5.314 7.23183 5.11987 7.23119Z" fill="#FF004F"/>
<path fill-rule="evenodd" clip-rule="evenodd" d="M12.5735 3.72237V5.51478C11.3775 5.51478 10.2697 5.13225 9.36481 4.48295V9.16983C9.36481 11.5105 7.46083 13.4148 5.12012 13.4148C4.21558 13.4148 3.37677 13.1295 2.68738 12.6453C3.08374 13.0727 3.56408 13.4137 4.09836 13.6468C4.63263 13.8799 5.20929 14.0001 5.79218 14C8.13289 14 10.0372 12.0957 10.0372 9.75532V5.06844C10.972 5.74061 12.0945 6.10161 13.2459 6.10027V3.79356C13.015 3.79356 12.7906 3.76854 12.5735 3.72205" fill="#FF004F"/>
<path fill-rule="evenodd" clip-rule="evenodd" d="M9.3648 9.16975V4.4829C10.2995 5.15513 11.4221 5.51613 12.5735 5.51473V3.72232C11.8947 3.5759 11.2816 3.2133 10.8263 2.68888C10.4617 2.45171 10.1489 2.143 9.9071 1.78145C9.66528 1.41989 9.49932 1.01302 9.41931 0.585449H7.7308L7.72727 9.82804C7.68848 10.8631 6.83652 11.6939 5.79218 11.6939C5.48491 11.6936 5.18213 11.6201 4.90886 11.4796C4.63563 11.3391 4.39973 11.1356 4.22071 10.8859C3.90754 10.7217 3.64519 10.475 3.46202 10.1726C3.27886 9.87013 3.18185 9.52336 3.1815 9.16975C3.18208 8.65577 3.38651 8.16303 3.74996 7.79961C4.11337 7.43617 4.60614 7.23174 5.12012 7.23113C5.31956 7.23113 5.51098 7.26385 5.69213 7.32093V5.51248C3.39759 5.56635 1.54748 7.44789 1.54748 9.75527C1.54748 10.8711 1.98099 11.8869 2.68738 12.6455C3.39949 13.1469 4.24926 13.4155 5.12012 13.4148C7.46083 13.4148 9.3648 11.5105 9.3648 9.16975Z" fill="white"/>
</svg>
