<svg width="14" height="14" viewBox="0 0 14 14" fill="none" xmlns="http://www.w3.org/2000/svg">
<path d="M0 7C0 3.13401 3.13401 0 7 0C10.866 0 14 3.13401 14 7C14 10.866 10.866 14 7 14C3.13401 14 0 10.866 0 7Z" fill="#55ACEE"/>
<path d="M6.79035 5.68976L6.80504 5.93198L6.56022 5.90232C5.66909 5.78862 4.89056 5.40306 4.22956 4.7555L3.9064 4.43419L3.82316 4.67147C3.64689 5.20039 3.75951 5.75897 4.12673 6.13465C4.32259 6.34226 4.27852 6.37192 3.94067 6.24834C3.82316 6.20879 3.72034 6.17914 3.71054 6.19397C3.67627 6.22857 3.79378 6.6784 3.88681 6.85635C4.01412 7.10351 4.27362 7.34573 4.55761 7.48908L4.79753 7.60277L4.51355 7.60771C4.23935 7.60771 4.22956 7.61266 4.25893 7.71646C4.35686 8.03777 4.74367 8.37885 5.17455 8.52715L5.47813 8.63095L5.21372 8.78913C4.82202 9.01652 4.36176 9.14504 3.9015 9.15493C3.68117 9.15987 3.5 9.17965 3.5 9.19448C3.5 9.24391 4.09736 9.52073 4.445 9.62948C5.48792 9.95078 6.7267 9.81237 7.657 9.26368C8.31801 8.87317 8.97902 8.09709 9.28749 7.34573C9.45397 6.94533 9.62044 6.21374 9.62044 5.86277C9.62044 5.63539 9.63513 5.60573 9.90933 5.33385C10.0709 5.17567 10.2227 5.00266 10.2521 4.95323C10.301 4.85931 10.2961 4.85931 10.0464 4.94334C9.63024 5.09164 9.57148 5.07186 9.77713 4.84942C9.92891 4.69124 10.1101 4.40453 10.1101 4.3205C10.1101 4.30567 10.0366 4.33039 9.95339 4.37488C9.86526 4.42431 9.66941 4.49845 9.52252 4.54294L9.25811 4.62698L9.01819 4.46385C8.88599 4.37488 8.69993 4.27601 8.602 4.24635C8.35229 4.17715 7.97037 4.18703 7.74514 4.26613C7.13309 4.48857 6.74628 5.06198 6.79035 5.68976Z" fill="white"/>
</svg>
